<svg width="30" height="30" viewBox="0 0 30 30" fill="none" xmlns="http://www.w3.org/2000/svg">
<path d="M19.7617 3.20978C17.9835 -1.06992 12.0165 -1.06994 10.2383 3.20978L9.30615 5.45315C8.935 6.3464 8.12624 6.9538 7.20184 7.05847L4.60065 7.35298C0.203468 7.85087 -1.55116 13.3248 1.61048 16.3815L3.81903 18.5167C4.47152 19.1475 4.7649 20.0832 4.58497 20.9933L4.05173 23.6903C3.1664 28.1683 7.99167 31.6637 11.8798 29.1675L13.6242 28.0477C14.4662 27.5072 15.5338 27.5072 16.3758 28.0477L18.1202 29.1675C22.0083 31.6637 26.8337 28.1683 25.9483 23.6903L25.415 20.9933C25.2352 20.0832 25.5285 19.1475 26.181 18.5167L28.3895 16.3815C31.5512 13.3248 29.7965 7.85087 25.3993 7.35298L22.7982 7.05847C21.8738 6.9538 21.065 6.3464 20.6938 5.45315L19.7617 3.20978Z" fill="#39B9BF"/>
</svg>
