<svg width="26" height="26" viewBox="0 0 26 26" fill="none" xmlns="http://www.w3.org/2000/svg">
<path fill-rule="evenodd" clip-rule="evenodd" d="M10.8164 17.4386C10.8164 18.1394 10.2483 18.7075 9.5475 18.7075C8.84673 18.7075 8.27865 18.1394 8.27865 17.4386C8.27865 16.7378 8.84673 16.1698 9.5475 16.1698C10.2483 16.1698 10.8164 16.7378 10.8164 17.4386ZM9.5475 21.4759C11.2912 21.4759 12.7767 20.3704 13.3415 18.8221L18.0616 18.8221C18.8261 18.8221 19.4458 18.2024 19.4458 17.4379C19.4458 16.6735 18.8261 16.0537 18.0616 16.0537L13.341 16.0537C12.7758 14.5061 11.2907 13.4014 9.5475 13.4014C7.31779 13.4014 5.51025 15.2089 5.51025 17.4386C5.51025 19.6683 7.31779 21.4759 9.5475 21.4759ZM14.1394 7.51797C14.1394 8.21873 14.7075 8.78682 15.4082 8.78682C16.109 8.78682 16.6771 8.21873 16.6771 7.51797C16.6771 6.8172 16.109 6.24911 15.4082 6.24911C14.7075 6.24911 14.1394 6.8172 14.1394 7.51797ZM15.4082 11.5552C13.6646 11.5552 12.1791 10.4499 11.6143 8.90164L6.89447 8.90164C6.13 8.90164 5.51027 8.28192 5.51027 7.51744C5.51027 6.75297 6.13 6.13324 6.89448 6.13324L11.6147 6.13324C12.1798 4.58557 13.665 3.48071 15.4082 3.48071C17.6379 3.48071 19.4455 5.28825 19.4455 7.51797C19.4455 9.74768 17.6379 11.5552 15.4082 11.5552Z" fill="white"/>
</svg>
