<svg width="24" height="24" viewBox="0 0 24 24" fill="none" xmlns="http://www.w3.org/2000/svg">
<g opacity="0.3">
<path fill-rule="evenodd" clip-rule="evenodd" d="M9.6 11.6H4.4V4.4H9.6V11.6ZM4.4 19.6H9.6V16.4H4.4V19.6ZM14.4 19.6H19.6V13.4H14.4V19.6ZM19.6 8.6V4.4H14.4V8.6H19.6ZM10 13H4C3.448 13 3 12.553 3 12V4C3 3.447 3.448 3 4 3H10C10.552 3 11 3.447 11 4V12C11 12.553 10.552 13 10 13ZM4 21C3.448 21 3 20.553 3 20V16C3 15.447 3.448 15 4 15H10C10.552 15 11 15.447 11 16V20C11 20.553 10.552 21 10 21H4ZM14 21C13.447 21 13 20.553 13 20V13C13 12.447 13.447 12 14 12H20C20.553 12 21 12.447 21 13V20C21 20.553 20.553 21 20 21H14ZM20 10H14C13.447 10 13 9.553 13 9V4C13 3.447 13.447 3 14 3H20C20.553 3 21 3.447 21 4V9C21 9.553 20.553 10 20 10Z" fill="#192129"/>
</g>
</svg>
