<svg width="22" height="22" viewBox="0 0 22 22" fill="none" xmlns="http://www.w3.org/2000/svg">
<g opacity="0.2">
<path d="M4.5835 17.5189C4.5835 15.3069 6.13937 13.4228 8.25387 13.0741L8.44433 13.0427C10.1375 12.7636 11.8628 12.7636 13.556 13.0427L13.7465 13.0741C15.861 13.4228 17.4168 15.3069 17.4168 17.5189C17.4168 18.475 16.6665 19.25 15.7411 19.25H6.25928C5.33377 19.25 4.5835 18.475 4.5835 17.5189ZM14.7433 6.35938C14.7433 8.35278 13.0674 9.96875 11.0002 9.96875C8.93295 9.96875 7.25713 8.35278 7.25713 6.35938C7.25713 4.36597 8.93295 2.75 11.0002 2.75C13.0674 2.75 14.7433 4.36597 14.7433 6.35938Z" stroke="#192129" stroke-width="1.5"/>
</g>
</svg>
