<svg width="2471" height="1906" viewBox="0 0 2471 1906" fill="none" xmlns="http://www.w3.org/2000/svg">
<rect width="2471" height="1906" fill="#354251"/>
<path d="M790.197 874.231H796.439C803.043 890.86 813.788 905.197 825.998 917.083C843.883 934.493 861.479 943.42 862.22 943.791C862.78 944.073 863.41 944.067 863.96 943.79C864.638 943.447 880.754 935.228 897.809 919.22C910.785 907.041 922.497 892.002 929.553 874.231H935.803C937.017 874.231 938 873.083 938 871.668C938 870.253 937.017 869.105 935.803 869.105H931.432C933.878 861.83 935.45 854.401 936.125 846.87C936.252 845.462 935.376 844.202 934.169 844.055C932.96 843.908 931.881 844.929 931.755 846.337C931.027 854.452 929.212 862.051 926.66 869.105H914.235L907.135 835.547C906.567 832.86 903.226 833.003 902.835 835.739L895.925 884.024L886.964 851.013C886.336 848.697 883.563 848.632 882.821 850.861L876.754 869.105H852.937L845.518 831.655C844.987 828.978 841.708 829.025 841.226 831.705L830.895 889.11L820.225 850.992C819.574 848.665 816.761 848.627 816.063 850.935L810.571 869.104H799.354C795.981 859.778 793.889 849.481 793.879 838.278C793.863 819.547 805.282 803.408 821.031 799.905C822.224 799.641 823.006 798.298 822.779 796.907C822.551 795.518 821.401 794.605 820.209 794.87C802.386 798.835 789.466 817.092 789.484 838.285C789.493 848.779 791.197 859.093 794.561 869.105H790.197C788.983 869.105 788 870.252 788 871.668C788 873.083 788.983 874.231 790.197 874.231ZM812.126 874.231C813.058 874.231 813.889 873.545 814.199 872.52L818.057 859.76L829.269 899.813C829.968 902.311 833.047 902.104 833.509 899.545L843.48 844.136L849.049 872.245C849.279 873.407 850.167 874.231 851.19 874.231H878.26C879.166 874.231 879.98 873.581 880.308 872.596L884.66 859.507L894.493 895.733C895.187 898.284 898.377 898.03 898.756 895.381L905.418 848.824L910.381 872.282C910.622 873.427 911.503 874.231 912.514 874.231H924.64C912.595 902.447 886.544 925.939 863.085 938.625C839.449 925.923 813.414 902.46 801.372 874.231H812.126Z" fill="white"/>
<path d="M898.618 794C885.092 794.017 872.541 802.527 865.808 816.227C864.105 818.568 861.843 818.562 860.146 816.228C854.046 803.884 843.201 795.695 831.09 794.302C829.88 794.166 828.807 795.192 828.688 796.602C828.568 798.01 829.451 799.264 830.659 799.403C841.425 800.641 851.062 807.962 856.435 818.986C856.742 819.613 859.112 823.108 862.977 823.108H862.98C866.141 823.105 868.76 820.546 869.526 818.97C875.408 806.842 886.52 799.126 898.654 799.126C915.917 799.126 930.562 814.815 932 834.857C932.096 836.196 933.056 837.206 934.187 837.206C934.249 837.206 934.311 837.203 934.374 837.197C935.583 837.079 936.481 835.839 936.38 834.428C934.752 811.765 918.484 794 898.618 794Z" fill="white"/>
<path d="M1497.66 785.094H1469.53V766.344C1469.53 765.722 1469.28 765.126 1468.84 764.686C1468.41 764.247 1467.81 764 1467.19 764C1466.57 764 1465.97 764.247 1465.53 764.686C1465.09 765.126 1464.84 765.722 1464.84 766.344V785.094H1385.16V766.344C1385.16 765.722 1384.91 765.126 1384.47 764.686C1384.03 764.247 1383.43 764 1382.81 764C1382.19 764 1381.59 764.247 1381.16 764.686C1380.72 765.126 1380.47 765.722 1380.47 766.344V785.094H1352.34C1351.72 785.094 1351.13 785.341 1350.69 785.78C1350.25 786.22 1350 786.816 1350 787.438V911.656C1350 912.278 1350.25 912.874 1350.69 913.314C1351.13 913.753 1351.72 914 1352.34 914H1497.66C1498.28 914 1498.87 913.753 1499.31 913.314C1499.75 912.874 1500 912.278 1500 911.656V787.438C1500 786.816 1499.75 786.22 1499.31 785.78C1498.87 785.341 1498.28 785.094 1497.66 785.094ZM1495.31 909.312H1354.69V789.781H1380.47V810.875C1380.47 811.497 1380.72 812.093 1381.16 812.532C1381.59 812.972 1382.19 813.219 1382.81 813.219C1383.43 813.219 1384.03 812.972 1384.47 812.532C1384.91 812.093 1385.16 811.497 1385.16 810.875V789.781H1464.84V810.875C1464.84 811.497 1465.09 812.093 1465.53 812.532C1465.97 812.972 1466.57 813.219 1467.19 813.219C1467.81 813.219 1468.41 812.972 1468.84 812.532C1469.28 812.093 1469.53 811.497 1469.53 810.875V789.781H1495.31V909.312Z" fill="#FBFBFB"/>
<path d="M1382.81 848.375C1380.96 848.375 1379.15 847.825 1377.6 846.795C1376.06 845.765 1374.86 844.301 1374.15 842.588C1373.44 840.875 1373.26 838.99 1373.62 837.171C1373.98 835.352 1374.87 833.682 1376.18 832.371C1377.49 831.06 1379.16 830.167 1380.98 829.805C1382.8 829.443 1384.69 829.629 1386.4 830.339C1388.11 831.048 1389.58 832.25 1390.61 833.792C1391.64 835.333 1392.19 837.146 1392.19 839C1392.19 841.486 1391.2 843.871 1389.44 845.629C1387.68 847.387 1385.3 848.375 1382.81 848.375ZM1382.81 834.313C1381.89 834.313 1380.98 834.587 1380.21 835.102C1379.44 835.618 1378.84 836.35 1378.48 837.206C1378.13 838.063 1378.03 839.005 1378.22 839.915C1378.4 840.824 1378.84 841.659 1379.5 842.315C1380.15 842.97 1380.99 843.417 1381.9 843.597C1382.81 843.778 1383.75 843.685 1384.61 843.331C1385.46 842.976 1386.19 842.375 1386.71 841.604C1387.23 840.833 1387.5 839.927 1387.5 839C1387.5 837.757 1387.01 836.565 1386.13 835.685C1385.25 834.806 1384.06 834.313 1382.81 834.313Z" fill="#FBFBFB"/>
<path d="M1425 848.375C1423.15 848.375 1421.33 847.825 1419.79 846.795C1418.25 845.765 1417.05 844.301 1416.34 842.588C1415.63 840.875 1415.44 838.99 1415.81 837.171C1416.17 835.352 1417.06 833.682 1418.37 832.371C1419.68 831.06 1421.35 830.167 1423.17 829.805C1424.99 829.443 1426.87 829.629 1428.59 830.339C1430.3 831.048 1431.76 832.25 1432.8 833.792C1433.83 835.333 1434.38 837.146 1434.38 839C1434.38 841.486 1433.39 843.871 1431.63 845.629C1429.87 847.387 1427.49 848.375 1425 848.375ZM1425 834.313C1424.07 834.313 1423.17 834.587 1422.4 835.102C1421.62 835.618 1421.02 836.35 1420.67 837.206C1420.31 838.063 1420.22 839.005 1420.4 839.915C1420.58 840.824 1421.03 841.659 1421.69 842.315C1422.34 842.97 1423.18 843.417 1424.09 843.597C1424.99 843.778 1425.94 843.685 1426.79 843.331C1427.65 842.976 1428.38 842.375 1428.9 841.604C1429.41 840.833 1429.69 839.927 1429.69 839C1429.69 837.757 1429.19 836.565 1428.31 835.685C1427.44 834.806 1426.24 834.313 1425 834.313Z" fill="#FBFBFB"/>
<path d="M1382.81 888.219C1380.96 888.219 1379.15 887.669 1377.6 886.639C1376.06 885.609 1374.86 884.144 1374.15 882.431C1373.44 880.718 1373.26 878.833 1373.62 877.015C1373.98 875.196 1374.87 873.526 1376.18 872.215C1377.49 870.904 1379.16 870.011 1380.98 869.649C1382.8 869.287 1384.69 869.473 1386.4 870.182C1388.11 870.892 1389.58 872.094 1390.61 873.635C1391.64 875.177 1392.19 876.99 1392.19 878.844C1392.19 881.33 1391.2 883.715 1389.44 885.473C1387.68 887.231 1385.3 888.219 1382.81 888.219ZM1382.81 874.156C1381.89 874.156 1380.98 874.431 1380.21 874.946C1379.44 875.461 1378.84 876.193 1378.48 877.05C1378.13 877.906 1378.03 878.849 1378.22 879.758C1378.4 880.668 1378.84 881.503 1379.5 882.158C1380.15 882.814 1380.99 883.26 1381.9 883.441C1382.81 883.622 1383.75 883.529 1384.61 883.174C1385.46 882.82 1386.19 882.219 1386.71 881.448C1387.23 880.677 1387.5 879.771 1387.5 878.844C1387.5 877.601 1387.01 876.408 1386.13 875.529C1385.25 874.65 1384.06 874.156 1382.81 874.156Z" fill="#FBFBFB"/>
<path d="M1425 888.219C1423.15 888.219 1421.33 887.669 1419.79 886.639C1418.25 885.609 1417.05 884.144 1416.34 882.431C1415.63 880.718 1415.44 878.833 1415.81 877.015C1416.17 875.196 1417.06 873.526 1418.37 872.215C1419.68 870.904 1421.35 870.011 1423.17 869.649C1424.99 869.287 1426.87 869.473 1428.59 870.182C1430.3 870.892 1431.76 872.094 1432.8 873.635C1433.83 875.177 1434.38 876.99 1434.38 878.844C1434.38 881.33 1433.39 883.715 1431.63 885.473C1429.87 887.231 1427.49 888.219 1425 888.219ZM1425 874.156C1424.07 874.156 1423.17 874.431 1422.4 874.946C1421.62 875.461 1421.02 876.193 1420.67 877.05C1420.31 877.906 1420.22 878.849 1420.4 879.758C1420.58 880.668 1421.03 881.503 1421.69 882.158C1422.34 882.814 1423.18 883.26 1424.09 883.441C1424.99 883.622 1425.94 883.529 1426.79 883.174C1427.65 882.82 1428.38 882.219 1428.9 881.448C1429.41 880.677 1429.69 879.771 1429.69 878.844C1429.69 877.601 1429.19 876.408 1428.31 875.529C1427.44 874.65 1426.24 874.156 1425 874.156Z" fill="#FBFBFB"/>
<path d="M1467.19 848.375C1465.33 848.375 1463.52 847.825 1461.98 846.795C1460.44 845.765 1459.24 844.301 1458.53 842.588C1457.82 840.875 1457.63 838.99 1457.99 837.171C1458.35 835.352 1459.25 833.682 1460.56 832.371C1461.87 831.06 1463.54 830.167 1465.36 829.805C1467.18 829.443 1469.06 829.629 1470.78 830.339C1472.49 831.048 1473.95 832.25 1474.98 833.792C1476.01 835.333 1476.56 837.146 1476.56 839C1476.56 841.486 1475.57 843.871 1473.82 845.629C1472.06 847.387 1469.67 848.375 1467.19 848.375ZM1467.19 834.313C1466.26 834.313 1465.35 834.587 1464.58 835.102C1463.81 835.618 1463.21 836.35 1462.86 837.206C1462.5 838.063 1462.41 839.005 1462.59 839.915C1462.77 840.824 1463.22 841.659 1463.87 842.315C1464.53 842.97 1465.36 843.417 1466.27 843.597C1467.18 843.778 1468.12 843.685 1468.98 843.331C1469.84 842.976 1470.57 842.375 1471.08 841.604C1471.6 840.833 1471.87 839.927 1471.87 839C1471.87 837.757 1471.38 836.565 1470.5 835.685C1469.62 834.806 1468.43 834.313 1467.19 834.313Z" fill="#FBFBFB"/>
<path d="M1477.18 894.383C1476.92 894.381 1476.65 894.334 1476.4 894.242L1467.19 890.973L1457.98 894.242C1457.62 894.372 1457.23 894.412 1456.85 894.359C1456.48 894.305 1456.12 894.161 1455.81 893.938C1455.5 893.712 1455.25 893.415 1455.08 893.072C1454.92 892.729 1454.84 892.35 1454.85 891.969L1455.12 882.195L1449.15 874.449C1448.92 874.149 1448.76 873.797 1448.7 873.422C1448.63 873.048 1448.66 872.663 1448.77 872.301C1448.89 871.939 1449.09 871.611 1449.36 871.344C1449.63 871.077 1449.96 870.88 1450.32 870.77L1459.7 868.004L1465.23 859.941C1465.45 859.627 1465.73 859.37 1466.07 859.193C1466.41 859.015 1466.78 858.922 1467.16 858.922C1467.54 858.922 1467.92 859.015 1468.26 859.193C1468.59 859.37 1468.88 859.627 1469.1 859.941L1474.63 868.004L1484 870.77C1484.37 870.88 1484.7 871.077 1484.97 871.344C1485.24 871.611 1485.44 871.939 1485.56 872.301C1485.67 872.663 1485.7 873.048 1485.63 873.422C1485.56 873.797 1485.41 874.149 1485.18 874.449L1479.21 882.195L1479.48 891.969C1479.49 892.282 1479.44 892.595 1479.32 892.887C1479.21 893.18 1479.04 893.447 1478.82 893.672C1478.6 893.897 1478.34 894.076 1478.05 894.198C1477.76 894.32 1477.45 894.383 1477.14 894.383H1477.18ZM1467.19 886.18C1467.45 886.176 1467.72 886.219 1467.97 886.309L1474.75 888.723L1474.55 881.527C1474.53 880.982 1474.7 880.447 1475.04 880.016L1479.42 874.309L1472.52 872.281C1472 872.127 1471.56 871.8 1471.25 871.356L1467.19 865.414L1463.12 871.344C1462.82 871.789 1462.37 872.115 1461.86 872.27L1454.95 874.297L1459.34 880.016C1459.67 880.441 1459.84 880.966 1459.83 881.504L1459.63 888.699L1466.4 886.285C1466.65 886.192 1466.92 886.144 1467.19 886.145V886.18Z" fill="#FBFBFB"/>
<path d="M1121.45 848.361C1112.46 848.017 1103.66 849.462 1095.4 852.55C1095.23 842.896 1093.46 833.432 1090.11 824.359C1089.56 822.877 1088.02 822.161 1086.67 822.76C1081.43 825.073 1076.53 827.995 1072 831.489C1066.55 819.75 1059.46 809.053 1050.87 799.656C1049.83 798.526 1048.16 798.526 1047.13 799.656C1038.53 809.061 1031.44 819.756 1026 831.484C1021.47 827.993 1016.57 825.072 1011.34 822.76C1009.98 822.161 1008.44 822.877 1007.89 824.359C1004.53 833.447 1002.76 842.927 1002.6 852.597C994.45 849.533 985.666 848.013 976.553 848.361C975.093 848.417 973.951 849.757 974.002 851.354C975.369 894.18 1007.65 928 1046.53 928C1047.35 928 1048.17 927.984 1049 927.954C1049.83 927.984 1050.65 928 1051.47 928C1090.35 928 1122.63 894.178 1124 851.354C1124.05 849.757 1122.91 848.416 1121.45 848.361ZM1011.83 829.285C1019.29 832.956 1025.97 837.997 1031.72 844.299C1037.9 851.053 1042.75 858.945 1046.15 867.768C1043.88 874.175 1042.39 880.797 1041.7 887.552C1033.9 873.065 1022.03 861.554 1007.88 854.838C1007.8 846.113 1009.12 837.539 1011.83 829.285ZM979.437 854.1C996.416 854.179 1012.5 861.141 1024.99 873.881C1037.48 886.621 1044.95 903.688 1046.21 922.211C1011.21 922.031 982.043 892.28 979.437 854.1ZM1035.47 840.206C1033.81 838.39 1032.08 836.673 1030.28 835.052C1035.12 824.363 1041.41 814.557 1049 805.845C1056.58 814.551 1062.87 824.357 1067.72 835.057C1065.92 836.675 1064.19 838.39 1062.53 840.205C1057.02 846.237 1052.48 853.118 1049 860.715C1045.52 853.121 1040.99 846.242 1035.47 840.206ZM1048.99 906.266C1048.3 903.585 1047.49 900.964 1046.56 898.408C1046.54 897.79 1046.53 897.137 1046.53 896.42C1046.53 886.935 1048.19 877.648 1051.45 868.815C1054.87 859.561 1059.86 851.312 1066.27 844.298C1072.03 837.996 1078.71 832.956 1086.17 829.285C1088.87 837.521 1090.2 846.076 1090.12 854.781C1082.58 858.347 1075.58 863.34 1069.4 869.647C1059.5 879.742 1052.53 892.36 1048.99 906.266ZM1051.79 922.211C1053.05 903.688 1060.52 886.621 1073.01 873.88C1085.5 861.14 1101.58 854.178 1118.56 854.1C1115.96 892.283 1086.79 922.035 1051.79 922.211Z" fill="white"/>
<path d="M978.128 839.905C979.589 839.905 980.774 838.609 980.774 837.01C980.774 835.412 979.589 834.116 978.128 834.116C976.667 834.116 975.482 835.412 975.482 837.01C975.482 838.609 976.667 839.905 978.128 839.905Z" fill="white"/>
<path d="M1010.34 807.772C1011.81 807.772 1012.99 806.476 1012.99 804.878C1012.99 803.279 1011.81 801.984 1010.34 801.984C1008.88 801.984 1007.7 803.279 1007.7 804.878C1007.7 806.476 1008.88 807.772 1010.34 807.772Z" fill="white"/>
<path d="M1049 783.788C1050.46 783.788 1051.64 782.493 1051.64 780.894C1051.64 779.296 1050.46 778 1049 778C1047.54 778 1046.35 779.296 1046.35 780.894C1046.35 782.493 1047.54 783.788 1049 783.788Z" fill="white"/>
<path d="M1087.66 807.772C1089.12 807.772 1090.3 806.476 1090.3 804.878C1090.3 803.279 1089.12 801.984 1087.66 801.984C1086.19 801.984 1085.01 803.279 1085.01 804.878C1085.01 806.476 1086.19 807.772 1087.66 807.772Z" fill="white"/>
<path d="M1119.87 839.905C1121.33 839.905 1122.51 838.609 1122.51 837.01C1122.51 835.412 1121.33 834.116 1119.87 834.116C1118.41 834.116 1117.22 835.412 1117.22 837.01C1117.22 838.609 1118.41 839.905 1119.87 839.905Z" fill="white"/>
<g clip-path="url(#clip0_211_2)">
<path d="M1300.97 902.25H1165.03C1163.17 902.25 1161.38 901.509 1160.06 900.191C1158.74 898.872 1158 897.084 1158 895.219V810.844C1158 808.979 1158.74 807.191 1160.06 805.872C1161.38 804.553 1163.17 803.812 1165.03 803.812H1300.97C1302.83 803.812 1304.62 804.553 1305.94 805.872C1307.26 807.191 1308 808.979 1308 810.844V895.219C1308 897.084 1307.26 898.872 1305.94 900.191C1304.62 901.509 1302.83 902.25 1300.97 902.25ZM1165.03 808.5C1164.41 808.5 1163.81 808.747 1163.37 809.186C1162.93 809.626 1162.69 810.222 1162.69 810.844V895.219C1162.69 895.84 1162.93 896.436 1163.37 896.876C1163.81 897.316 1164.41 897.562 1165.03 897.562H1300.97C1301.59 897.562 1302.19 897.316 1302.63 896.876C1303.07 896.436 1303.31 895.84 1303.31 895.219V810.844C1303.31 810.222 1303.07 809.626 1302.63 809.186C1302.19 808.747 1301.59 808.5 1300.97 808.5H1165.03Z" fill="white"/>
<path d="M1271.67 921H1194.33C1193.71 921 1193.11 920.753 1192.67 920.314C1192.23 919.874 1191.98 919.278 1191.98 918.656C1191.98 918.035 1192.23 917.439 1192.67 916.999C1193.11 916.559 1193.71 916.312 1194.33 916.312H1271.67C1272.29 916.312 1272.89 916.559 1273.33 916.999C1273.77 917.439 1274.02 918.035 1274.02 918.656C1274.02 919.278 1273.77 919.874 1273.33 920.314C1272.89 920.753 1272.29 921 1271.67 921Z" fill="white"/>
<path d="M1233 921C1232.38 921 1231.78 920.753 1231.34 920.314C1230.9 919.874 1230.66 919.278 1230.66 918.656V899.906C1230.66 899.285 1230.9 898.689 1231.34 898.249C1231.78 897.809 1232.38 897.562 1233 897.562C1233.62 897.562 1234.22 897.809 1234.66 898.249C1235.1 898.689 1235.34 899.285 1235.34 899.906V918.656C1235.34 919.278 1235.1 919.874 1234.66 920.314C1234.22 920.753 1233.62 921 1233 921Z" fill="white"/>
<path d="M1244.72 808.5C1244.1 808.5 1243.5 808.253 1243.06 807.814C1242.62 807.374 1242.38 806.778 1242.38 806.156C1242.38 802.277 1238.17 799.125 1233 799.125C1227.83 799.125 1223.62 802.277 1223.62 806.156C1223.62 806.778 1223.38 807.374 1222.94 807.814C1222.5 808.253 1221.9 808.5 1221.28 808.5C1220.66 808.5 1220.06 808.253 1219.62 807.814C1219.18 807.374 1218.94 806.778 1218.94 806.156C1218.94 799.699 1225.24 794.438 1233 794.438C1240.76 794.438 1247.06 799.699 1247.06 806.156C1247.06 806.778 1246.82 807.374 1246.38 807.814C1245.94 808.253 1245.34 808.5 1244.72 808.5Z" fill="white"/>
<path d="M1240.03 800.297C1239.62 800.3 1239.22 800.195 1238.86 799.992C1238.59 799.839 1238.36 799.634 1238.17 799.39C1237.98 799.145 1237.84 798.866 1237.76 798.567C1237.68 798.269 1237.66 797.957 1237.7 797.651C1237.74 797.344 1237.84 797.049 1237.99 796.781L1252.05 772.172C1252.21 771.904 1252.41 771.669 1252.66 771.481C1252.9 771.292 1253.18 771.154 1253.48 771.073C1253.78 770.993 1254.09 770.972 1254.4 771.011C1254.7 771.051 1255 771.151 1255.27 771.305C1255.53 771.459 1255.77 771.664 1255.96 771.908C1256.15 772.153 1256.28 772.432 1256.36 772.731C1256.44 773.029 1256.47 773.34 1256.43 773.646C1256.39 773.952 1256.29 774.248 1256.13 774.516L1242.07 799.125C1241.86 799.483 1241.57 799.779 1241.21 799.985C1240.85 800.191 1240.44 800.299 1240.03 800.297Z" fill="white"/>
<path d="M1225.97 800.297C1225.56 800.299 1225.15 800.191 1224.79 799.985C1224.43 799.779 1224.14 799.483 1223.93 799.125L1209.87 774.516C1209.56 773.975 1209.47 773.333 1209.64 772.731C1209.8 772.128 1210.19 771.616 1210.73 771.305C1211.27 770.994 1211.92 770.911 1212.52 771.073C1213.12 771.236 1213.63 771.631 1213.95 772.172L1228.01 796.781C1228.16 797.049 1228.26 797.344 1228.3 797.651C1228.34 797.957 1228.32 798.269 1228.24 798.567C1228.16 798.866 1228.02 799.145 1227.83 799.39C1227.64 799.634 1227.41 799.839 1227.14 799.992C1226.78 800.195 1226.38 800.3 1225.97 800.297Z" fill="white"/>
</g>
<g clip-path="url(#clip1_211_2)">
<path d="M1581.12 891.883C1581.34 892.101 1581.59 892.274 1581.88 892.392C1582.16 892.51 1582.47 892.57 1582.78 892.57C1583.08 892.57 1583.39 892.51 1583.67 892.392C1583.96 892.274 1584.22 892.101 1584.43 891.883L1609.97 866.266C1610.41 865.826 1610.66 865.229 1610.66 864.608C1610.66 863.986 1610.41 863.389 1609.97 862.949C1609.53 862.51 1608.93 862.262 1608.31 862.262C1607.69 862.262 1607.09 862.51 1606.65 862.949L1581.12 888.578C1580.68 889.017 1580.44 889.611 1580.44 890.231C1580.44 890.85 1580.68 891.444 1581.12 891.883Z" fill="white"/>
<path d="M1627.28 849.039L1652.88 823.422C1653.32 822.982 1653.57 822.386 1653.57 821.764C1653.57 821.142 1653.32 820.545 1652.88 820.106C1652.44 819.666 1651.85 819.419 1651.22 819.419C1650.6 819.419 1650.01 819.666 1649.57 820.106L1623.97 845.723C1623.76 845.94 1623.58 846.199 1623.46 846.484C1623.35 846.768 1623.29 847.073 1623.29 847.381C1623.29 847.689 1623.35 847.994 1623.46 848.278C1623.58 848.563 1623.76 848.821 1623.97 849.039C1624.19 849.257 1624.45 849.43 1624.73 849.547C1625.02 849.665 1625.32 849.726 1625.63 849.726C1625.94 849.726 1626.24 849.665 1626.53 849.547C1626.81 849.43 1627.07 849.257 1627.29 849.039H1627.28Z" fill="white"/>
<path d="M1574.09 931C1578.3 931.017 1582.48 930.197 1586.38 928.588C1590.28 926.979 1593.82 924.612 1596.8 921.625L1613.48 904.984C1617.27 901.197 1620.05 896.522 1621.56 891.386C1623.08 886.251 1623.28 880.817 1622.16 875.582C1622 875 1621.63 874.499 1621.12 874.183C1620.61 873.867 1620 873.759 1619.41 873.883C1618.82 874.006 1618.3 874.351 1617.96 874.846C1617.62 875.341 1617.48 875.949 1617.57 876.543C1618.54 881.025 1618.36 885.678 1617.06 890.073C1615.75 894.469 1613.37 898.468 1610.12 901.703L1593.48 918.344C1588.3 923.317 1581.38 926.062 1574.2 925.99C1567.02 925.918 1560.16 923.033 1555.08 917.956C1550 912.879 1547.12 906.014 1547.05 898.835C1546.97 891.655 1549.72 884.733 1554.69 879.555L1571.3 862.879C1574.51 859.668 1578.48 857.307 1582.83 856.009C1587.19 854.71 1591.8 854.513 1596.25 855.438C1596.86 855.562 1597.49 855.439 1598.01 855.096C1598.53 854.753 1598.89 854.219 1599.01 853.609C1599.14 853 1599.01 852.367 1598.67 851.848C1598.33 851.329 1597.79 850.968 1597.18 850.844C1591.98 849.763 1586.6 849.99 1581.51 851.504C1576.42 853.017 1571.78 855.77 1568.02 859.516L1551.38 876.203C1546.88 880.691 1543.82 886.412 1542.57 892.642C1541.33 898.872 1541.97 905.33 1544.4 911.199C1546.83 917.068 1550.95 922.082 1556.24 925.607C1561.52 929.132 1567.73 931.009 1574.09 931Z" fill="white"/>
<path d="M1659.91 781C1655.7 780.983 1651.52 781.803 1647.62 783.412C1643.72 785.021 1640.18 787.388 1637.2 790.375L1620.52 807.016C1616.73 810.803 1613.95 815.478 1612.44 820.614C1610.93 825.75 1610.72 831.183 1611.84 836.418C1612 837 1612.37 837.501 1612.88 837.817C1613.39 838.133 1614 838.241 1614.59 838.117C1615.18 837.994 1615.7 837.649 1616.04 837.154C1616.38 836.659 1616.52 836.051 1616.43 835.457C1615.46 830.975 1615.64 826.322 1616.94 821.927C1618.25 817.531 1620.63 813.532 1623.88 810.297L1640.52 793.656C1645.7 788.683 1652.62 785.938 1659.8 786.01C1666.98 786.082 1673.84 788.967 1678.92 794.044C1684 799.121 1686.88 805.986 1686.96 813.165C1687.03 820.345 1684.28 827.267 1679.31 832.445L1662.7 849.121C1659.49 852.331 1655.52 854.691 1651.17 855.99C1646.81 857.289 1642.2 857.486 1637.75 856.563C1637.15 856.438 1636.51 856.561 1635.99 856.904C1635.47 857.247 1635.11 857.781 1634.99 858.391C1634.86 859 1634.99 859.633 1635.33 860.152C1635.67 860.671 1636.21 861.032 1636.82 861.156C1638.96 861.594 1641.15 861.813 1643.34 861.813C1647.55 861.818 1651.72 860.993 1655.62 859.385C1659.51 857.776 1663.04 855.415 1666.02 852.438L1682.63 835.797C1688.63 829.763 1692 821.597 1692 813.086C1692 804.575 1688.63 796.409 1682.63 790.375C1679.65 787.388 1676.11 785.021 1672.21 783.412C1668.31 781.803 1664.13 780.983 1659.91 781Z" fill="white"/>
<path d="M1582.45 824.77C1582.89 825.209 1583.49 825.456 1584.11 825.456C1584.73 825.456 1585.33 825.209 1585.77 824.77C1586.21 824.33 1586.46 823.733 1586.46 823.111C1586.46 822.489 1586.21 821.893 1585.77 821.453L1561.92 797.652C1561.47 797.33 1560.92 797.178 1560.37 797.224C1559.81 797.269 1559.29 797.51 1558.9 797.902C1558.51 798.295 1558.27 798.813 1558.22 799.366C1558.18 799.919 1558.33 800.47 1558.65 800.922L1582.45 824.77Z" fill="white"/>
<path d="M1648.23 887.23C1648.01 887.448 1647.84 887.707 1647.72 887.991C1647.6 888.276 1647.54 888.581 1647.54 888.889C1647.54 889.197 1647.6 889.502 1647.72 889.786C1647.84 890.071 1648.01 890.329 1648.23 890.547L1672.08 914.348C1672.52 914.787 1673.11 915.035 1673.74 915.035C1674.36 915.035 1674.96 914.787 1675.39 914.348C1675.83 913.908 1676.08 913.311 1676.08 912.689C1676.08 912.068 1675.83 911.471 1675.39 911.031L1651.55 887.23C1651.33 887.013 1651.07 886.84 1650.79 886.722C1650.5 886.604 1650.2 886.543 1649.89 886.543C1649.58 886.543 1649.28 886.604 1648.99 886.722C1648.71 886.84 1648.45 887.013 1648.23 887.23Z" fill="white"/>
<path d="M1595.21 814.832C1595.32 815.149 1595.49 815.44 1595.71 815.686C1595.93 815.932 1596.21 816.128 1596.51 816.261C1596.82 816.393 1597.15 816.459 1597.48 816.453C1597.81 816.448 1598.14 816.372 1598.44 816.23C1598.74 816.089 1599.01 815.884 1599.23 815.631C1599.44 815.378 1599.6 815.082 1599.7 814.762C1599.79 814.443 1599.81 814.107 1599.76 813.777C1599.72 813.448 1599.6 813.132 1599.42 812.852L1585.24 782.359C1585.12 782.065 1584.94 781.799 1584.72 781.576C1584.49 781.353 1584.22 781.178 1583.93 781.062C1583.63 780.946 1583.32 780.892 1583 780.902C1582.68 780.912 1582.37 780.986 1582.08 781.12C1581.79 781.255 1581.54 781.446 1581.32 781.683C1581.11 781.92 1580.95 782.197 1580.85 782.499C1580.75 782.8 1580.71 783.118 1580.74 783.435C1580.76 783.751 1580.85 784.059 1581 784.34L1595.21 814.832Z" fill="white"/>
<path d="M1635.67 896.031C1635.39 896.158 1635.13 896.339 1634.92 896.565C1634.71 896.79 1634.54 897.056 1634.43 897.346C1634.32 897.635 1634.27 897.944 1634.28 898.253C1634.29 898.563 1634.37 898.867 1634.5 899.149L1648.72 929.617C1648.85 929.897 1649.04 930.147 1649.26 930.356C1649.49 930.564 1649.76 930.726 1650.05 930.831C1650.34 930.937 1650.64 930.984 1650.95 930.971C1651.26 930.958 1651.56 930.884 1651.84 930.754C1652.12 930.624 1652.37 930.44 1652.58 930.213C1652.79 929.986 1652.95 929.72 1653.05 929.431C1653.16 929.141 1653.21 928.834 1653.19 928.526C1653.18 928.218 1653.11 927.916 1652.98 927.637L1638.75 897.168C1638.49 896.612 1638.02 896.182 1637.44 895.969C1636.87 895.757 1636.23 895.779 1635.67 896.031Z" fill="white"/>
<path d="M1543.35 824.242L1573.85 838.422C1574.41 838.649 1575.03 838.653 1575.59 838.434C1576.15 838.214 1576.61 837.788 1576.86 837.243C1577.11 836.698 1577.15 836.076 1576.96 835.506C1576.77 834.936 1576.36 834.461 1575.83 834.18L1545.36 819.953C1544.79 819.686 1544.14 819.655 1543.55 819.869C1542.96 820.082 1542.48 820.521 1542.21 821.09C1541.94 821.659 1541.91 822.31 1542.13 822.901C1542.34 823.493 1542.78 823.975 1543.35 824.242Z" fill="white"/>
<path d="M1688.66 892C1689.22 892.227 1689.84 892.231 1690.4 892.012C1690.96 891.793 1691.41 891.366 1691.67 890.821C1691.92 890.276 1691.96 889.654 1691.77 889.084C1691.58 888.514 1691.17 888.039 1690.64 887.758L1660.15 873.578C1659.58 873.316 1658.94 873.288 1658.35 873.501C1657.77 873.714 1657.29 874.151 1657.03 874.715C1656.77 875.279 1656.74 875.924 1656.95 876.509C1657.17 877.094 1657.6 877.57 1658.17 877.832L1688.66 892Z" fill="white"/>
</g>
<defs>
<clipPath id="clip0_211_2">
<rect width="150" height="150" fill="white" transform="translate(1158 771)"/>
</clipPath>
<clipPath id="clip1_211_2">
<rect width="150" height="150" fill="white" transform="translate(1542 781)"/>
</clipPath>
</defs>
</svg>
