<svg width="42" height="42" viewBox="0 0 42 42" fill="none" xmlns="http://www.w3.org/2000/svg">
<g filter="url(#filter0_b_414_1232)">
<rect x="1" y="1" width="40" height="40" rx="12" fill="white" fill-opacity="0.2"/>
<rect x="0.5" y="0.5" width="41" height="41" rx="12.5" stroke="url(#paint0_linear_414_1232)" stroke-opacity="0.7"/>
</g>
<path d="M28.0808 13.858L24.7338 11.246C24.6171 11.1523 24.4827 11.0831 24.3387 11.0424C24.1947 11.0016 24.0439 10.9902 23.8954 11.0089C23.7469 11.0276 23.6037 11.0759 23.4742 11.151C23.3448 11.226 23.2317 11.3264 23.1418 11.446L15.4278 21.246C15.321 21.3744 15.2518 21.5298 15.2278 21.695L14.0818 26.551C14.0252 26.7604 14.0339 26.9821 14.1068 27.1864C14.1798 27.3907 14.3134 27.5678 14.4898 27.694C14.6631 27.8245 14.8689 27.9049 15.0847 27.9264C15.3006 27.948 15.5182 27.9098 15.7138 27.816L20.1628 25.572C20.3158 25.4861 20.4536 25.3757 20.5708 25.245L28.2848 15.49C28.465 15.2432 28.5443 14.9369 28.5064 14.6336C28.4684 14.3303 28.3162 14.0529 28.0808 13.858V13.858ZM19.1018 23.858L16.5338 25.164L17.1868 22.348L21.7138 16.592L23.6338 18.102L19.1018 23.858ZM24.8568 16.511L22.9338 15.002L24.2038 13.409L26.1218 14.919L24.8568 16.511Z" fill="white"/>
<path d="M27.2651 31H15.0201C14.8857 31.0014 14.7523 30.9759 14.6279 30.925C14.5035 30.8742 14.3905 30.799 14.2955 30.7039C14.2005 30.6088 14.1254 30.4957 14.0747 30.3713C14.024 30.2468 13.9986 30.1134 14.0001 29.979V29.979C13.9987 29.8447 14.0242 29.7115 14.075 29.5871C14.1258 29.4628 14.2008 29.3498 14.2958 29.2548C14.3908 29.1598 14.5038 29.0847 14.6281 29.034C14.7525 28.9832 14.8857 28.9577 15.0201 28.959H27.2651C27.3994 28.9577 27.5326 28.9832 27.657 29.034C27.7813 29.0847 27.8943 29.1598 27.9893 29.2548C28.0843 29.3498 28.1594 29.4628 28.2101 29.5871C28.2609 29.7115 28.2864 29.8447 28.2851 29.979C28.2865 30.1134 28.2612 30.2468 28.2104 30.3713C28.1597 30.4957 28.0846 30.6088 27.9896 30.7039C27.8947 30.799 27.7816 30.8742 27.6572 30.925C27.5328 30.9759 27.3995 31.0014 27.2651 31V31Z" fill="white"/>
<defs>
<filter id="filter0_b_414_1232" x="-18" y="-18" width="78" height="78" filterUnits="userSpaceOnUse" color-interpolation-filters="sRGB">
<feFlood flood-opacity="0" result="BackgroundImageFix"/>
<feGaussianBlur in="BackgroundImage" stdDeviation="9"/>
<feComposite in2="SourceAlpha" operator="in" result="effect1_backgroundBlur_414_1232"/>
<feBlend mode="normal" in="SourceGraphic" in2="effect1_backgroundBlur_414_1232" result="shape"/>
</filter>
<linearGradient id="paint0_linear_414_1232" x1="4.75197" y1="-7.57143" x2="21.1214" y2="-2.08883" gradientUnits="userSpaceOnUse">
<stop stop-color="white"/>
<stop offset="1" stop-color="white" stop-opacity="0"/>
</linearGradient>
</defs>
</svg>
