<svg width="42" height="42" viewBox="0 0 42 42" fill="none" xmlns="http://www.w3.org/2000/svg">
<g filter="url(#filter0_b_414_1244)">
<rect x="1" y="1" width="40" height="40" rx="12" fill="black" fill-opacity="0.2"/>
<rect x="0.5" y="0.5" width="41" height="41" rx="12.5" stroke="url(#paint0_linear_414_1244)" stroke-opacity="0.7"/>
</g>
<path d="M21 11C19.0222 11 17.0888 11.5865 15.4443 12.6853C13.7998 13.7841 12.5181 15.3459 11.7612 17.1731C11.0043 19.0004 10.8063 21.0111 11.1922 22.9509C11.578 24.8907 12.5304 26.6725 13.9289 28.071C15.3275 29.4696 17.1093 30.422 19.0491 30.8078C20.9889 31.1937 22.9996 30.9956 24.8268 30.2388C26.6541 29.4819 28.2159 28.2002 29.3147 26.5557C30.4135 24.9112 31 22.9778 31 21C31 18.3478 29.9464 15.8043 28.0711 13.9289C26.1957 12.0535 23.6522 11 21 11V11ZM21 29C19.4178 29 17.871 28.5308 16.5554 27.6517C15.2398 26.7727 14.2145 25.5232 13.609 24.0614C13.0035 22.5996 12.845 20.9911 13.1537 19.4392C13.4624 17.8874 14.2243 16.4619 15.3432 15.3431C16.462 14.2243 17.8874 13.4624 19.4393 13.1537C20.9911 12.845 22.5997 13.0034 24.0615 13.6089C25.5233 14.2144 26.7727 15.2398 27.6518 16.5554C28.5308 17.871 29 19.4177 29 21C28.9937 23.1198 28.1488 25.1509 26.6499 26.6498C25.1509 28.1488 23.1198 28.9936 21 29Z" fill="black"/>
<path d="M18 18.8418H19.2524C19.333 17.7944 20.0361 17.1425 21.1421 17.1425C22.2334 17.1425 22.9365 17.8091 22.9365 18.7173C22.9365 19.5009 22.6069 19.9624 21.7573 20.4824C20.7539 21.083 20.2852 21.7422 20.2925 22.709V23.3828H21.5742V22.9067C21.5742 22.1377 21.8379 21.7275 22.7681 21.1782C23.7056 20.6142 24.2988 19.8012 24.2988 18.6513C24.2988 17.1425 23.0391 16 21.1934 16C19.1353 16 18.0806 17.2597 18 18.8418ZM20.937 26.7226C21.4131 26.7226 21.772 26.3564 21.772 25.8877C21.772 25.4116 21.4131 25.0527 20.937 25.0527C20.4683 25.0527 20.1021 25.4116 20.1021 25.8877C20.1021 26.3564 20.4683 26.7226 20.937 26.7226Z" fill="black"/>
<path fill-rule="evenodd" clip-rule="evenodd" d="M17.6846 19.1417L17.7006 18.8265C17.7441 17.9733 18.052 17.1862 18.647 16.6117C19.2436 16.0357 20.1014 15.6999 21.1936 15.6999C23.1641 15.6999 24.5991 16.9387 24.5991 18.6513C24.5991 19.9292 23.9293 20.8298 22.9229 21.4352L22.9209 21.4365C22.4673 21.7043 22.2149 21.917 22.0705 22.129C21.9333 22.3302 21.8745 22.5591 21.8745 22.9067V23.6827H19.9927V22.71C19.9888 22.1736 20.1183 21.7071 20.3969 21.2913C20.6718 20.881 21.0794 20.5388 21.6022 20.2257C22.0112 19.9752 22.2639 19.7569 22.4174 19.5304C22.5655 19.3119 22.6368 19.0626 22.6368 18.7172C22.6368 18.3446 22.4945 18.0334 22.2484 17.8126C22.0003 17.5899 21.6271 17.4425 21.1423 17.4425C20.6489 17.4425 20.2732 17.587 20.0145 17.8216C19.7563 18.0557 19.5872 18.4043 19.5518 18.8647L19.5305 19.1417H17.6846ZM21.7576 20.4823C20.7541 21.0829 20.2854 21.7421 20.2927 22.7089V23.3827H21.5745V22.9067C21.5745 22.1376 21.8381 21.7275 22.7683 21.1781C23.7058 20.6142 24.2991 19.8012 24.2991 18.6513C24.2991 17.1425 23.0393 15.9999 21.1936 15.9999C19.2674 15.9999 18.2201 17.1034 18.0277 18.5417C18.0146 18.6402 18.0054 18.7403 18.0002 18.8417H19.2527C19.3332 17.7944 20.0364 17.1425 21.1423 17.1425C22.2336 17.1425 22.9368 17.809 22.9368 18.7172C22.9368 19.5009 22.6072 19.9623 21.7576 20.4823ZM22.0722 25.8876C22.0722 26.5203 21.5807 27.0226 20.9372 27.0226C20.3028 27.0226 19.8023 26.5221 19.8023 25.8876C19.8023 25.2441 20.3045 24.7527 20.9372 24.7527C21.579 24.7527 22.0722 25.2459 22.0722 25.8876ZM21.7722 25.8876C21.7722 26.3564 21.4133 26.7226 20.9372 26.7226C20.4685 26.7226 20.1023 26.3564 20.1023 25.8876C20.1023 25.4115 20.4685 25.0527 20.9372 25.0527C21.4133 25.0527 21.7722 25.4115 21.7722 25.8876Z" fill="black"/>
<defs>
<filter id="filter0_b_414_1244" x="-18" y="-18" width="78" height="78" filterUnits="userSpaceOnUse" color-interpolation-filters="sRGB">
<feFlood flood-opacity="0" result="BackgroundImageFix"/>
<feGaussianBlur in="BackgroundImage" stdDeviation="9"/>
<feComposite in2="SourceAlpha" operator="in" result="effect1_backgroundBlur_414_1244"/>
<feBlend mode="normal" in="SourceGraphic" in2="effect1_backgroundBlur_414_1244" result="shape"/>
</filter>
<linearGradient id="paint0_linear_414_1244" x1="4.75197" y1="-7.57143" x2="21.1214" y2="-2.08883" gradientUnits="userSpaceOnUse">
<stop stop-color="black"/>
<stop offset="1" stop-color="black" stop-opacity="0"/>
</linearGradient>
</defs>
</svg>
