<svg width="42" height="42" viewBox="0 0 42 42" fill="none" xmlns="http://www.w3.org/2000/svg">
<g filter="url(#filter0_b_414_1257)">
<rect x="1" y="1" width="40" height="40" rx="12" fill="black" fill-opacity="0.2"/>
<rect x="0.5" y="0.5" width="41" height="41" rx="12.5" stroke="url(#paint0_linear_414_1257)" stroke-opacity="0.7"/>
</g>
<path d="M28.2868 11H20.1018C19.7444 10.9969 19.39 11.0651 19.0592 11.2004C18.7284 11.3358 18.4279 11.5357 18.1752 11.7884C17.9225 12.0411 17.7226 12.3416 17.5872 12.6724C17.4519 13.0032 17.3838 13.3576 17.3868 13.715V16.828C17.3868 17.0932 17.4922 17.3476 17.6797 17.5351C17.8672 17.7227 18.1216 17.828 18.3868 17.828C18.652 17.828 18.9064 17.7227 19.0939 17.5351C19.2815 17.3476 19.3868 17.0932 19.3868 16.828V13.715C19.3871 13.5255 19.4625 13.3437 19.5965 13.2097C19.7306 13.0757 19.9123 13.0003 20.1018 13H28.2868C28.3813 12.9996 28.475 13.0179 28.5624 13.0539C28.6498 13.0899 28.7293 13.1429 28.7961 13.2097C28.863 13.2766 28.9159 13.356 28.9519 13.4434C28.9879 13.5308 29.0062 13.6245 29.0058 13.719V28.285C29.0057 28.3792 28.987 28.4724 28.9507 28.5594C28.9145 28.6463 28.8615 28.7253 28.7947 28.7917C28.7279 28.8581 28.6487 28.9107 28.5615 28.9465C28.4744 28.9822 28.381 29.0004 28.2868 29H20.1018C19.9123 28.9997 19.7306 28.9243 19.5965 28.7903C19.4625 28.6563 19.3871 28.4746 19.3868 28.285V24.772C19.3868 24.5068 19.2815 24.2524 19.0939 24.0649C18.9064 23.8774 18.652 23.772 18.3868 23.772C18.1216 23.772 17.8672 23.8774 17.6797 24.0649C17.4922 24.2524 17.3868 24.5068 17.3868 24.772V28.285C17.3873 29.0049 17.6736 29.6952 18.1826 30.2042C18.6917 30.7133 19.3819 30.9995 20.1018 31H28.2868C29.0067 30.9995 29.697 30.7133 30.206 30.2042C30.7151 29.6952 31.0013 29.0049 31.0018 28.285V13.715C30.9945 12.9972 30.7061 12.3109 30.1986 11.8033C29.691 11.2957 29.0046 11.0073 28.2868 11Z" fill="black"/>
<path d="M26.1701 21.779C26.2101 21.779 26.2101 21.779 26.2501 21.739C26.2718 21.7417 26.2938 21.7395 26.3146 21.7326C26.3354 21.7256 26.3543 21.7142 26.3701 21.699C26.4004 21.6948 26.4285 21.6808 26.4501 21.659C26.4901 21.659 26.4901 21.619 26.5301 21.619C26.6415 21.5468 26.7363 21.4517 26.8081 21.34C26.8081 21.3 26.8481 21.3 26.8481 21.26C26.8522 21.2297 26.8663 21.2015 26.8881 21.18C26.8881 21.14 26.9281 21.1 26.9281 21.06C26.9281 21.02 26.9281 21.02 26.9681 20.98C27.0082 20.8497 27.0082 20.7103 26.9681 20.58C26.9681 20.54 26.9681 20.54 26.9281 20.5C26.9308 20.4783 26.9286 20.4562 26.9216 20.4355C26.9147 20.4147 26.9033 20.3958 26.8881 20.38C26.8839 20.3497 26.8699 20.3215 26.8481 20.3C26.8481 20.26 26.8081 20.26 26.8081 20.22C26.7681 20.18 26.7281 20.1 26.6881 20.06L23.0151 16.387C22.8294 16.2013 22.5776 16.097 22.3151 16.097C22.0525 16.097 21.8007 16.2013 21.6151 16.387C21.4294 16.5726 21.3251 16.8244 21.3251 17.087C21.3251 17.3495 21.4294 17.6013 21.6151 17.787L23.5751 19.74H12.0001C11.7323 19.7525 11.4795 19.867 11.2936 20.0601C11.1076 20.2531 11.0026 20.51 11.0001 20.778C10.9985 20.9098 11.0232 21.0405 11.0729 21.1626C11.1226 21.2846 11.1962 21.3955 11.2894 21.4887C11.3826 21.5819 11.4934 21.6555 11.6155 21.7052C11.7375 21.7548 11.8683 21.7796 12.0001 21.778H26.1701V21.779Z" fill="black"/>
<path d="M21.5388 24.613L23.2948 22.857C23.3849 22.7619 23.4934 22.6861 23.6138 22.6343C23.7341 22.5825 23.8638 22.5558 23.9948 22.5558C24.1258 22.5558 24.2555 22.5825 24.3758 22.6343C24.4962 22.6861 24.6047 22.7619 24.6948 22.857C24.7899 22.9471 24.8657 23.0556 24.9175 23.176C24.9693 23.2963 24.996 23.426 24.996 23.557C24.996 23.688 24.9693 23.8177 24.9175 23.938C24.8657 24.0584 24.7899 24.1669 24.6948 24.257L22.9368 26.007C22.8467 26.1021 22.7382 26.1779 22.6178 26.2297C22.4975 26.2815 22.3678 26.3082 22.2368 26.3082C22.1058 26.3082 21.9761 26.2815 21.8558 26.2297C21.7354 26.1779 21.6269 26.1021 21.5368 26.007C21.4427 25.9169 21.3679 25.8086 21.3168 25.6887C21.2658 25.5688 21.2396 25.4399 21.2397 25.3096C21.2399 25.1793 21.2665 25.0504 21.3179 24.9307C21.3693 24.8109 21.4445 24.7029 21.5388 24.613Z" fill="black"/>
<defs>
<filter id="filter0_b_414_1257" x="-18" y="-18" width="78" height="78" filterUnits="userSpaceOnUse" color-interpolation-filters="sRGB">
<feFlood flood-opacity="0" result="BackgroundImageFix"/>
<feGaussianBlur in="BackgroundImage" stdDeviation="9"/>
<feComposite in2="SourceAlpha" operator="in" result="effect1_backgroundBlur_414_1257"/>
<feBlend mode="normal" in="SourceGraphic" in2="effect1_backgroundBlur_414_1257" result="shape"/>
</filter>
<linearGradient id="paint0_linear_414_1257" x1="4.75197" y1="-7.57143" x2="21.1214" y2="-2.08883" gradientUnits="userSpaceOnUse">
<stop stop-color="black"/>
<stop offset="1" stop-color="black" stop-opacity="0"/>
</linearGradient>
</defs>
</svg>
