<svg width="42" height="42" viewBox="0 0 42 42" fill="none" xmlns="http://www.w3.org/2000/svg">
<g filter="url(#filter0_b_414_1285)">
<rect x="1" y="1" width="40" height="40" rx="12" fill="black" fill-opacity="0.2"/>
<rect x="0.5" y="0.5" width="41" height="41" rx="12.5" stroke="url(#paint0_linear_414_1285)" stroke-opacity="0.7"/>
</g>
<path d="M22.0016 27.4V27.8C22.0016 28.1183 21.8751 28.4235 21.6501 28.6486C21.425 28.8736 21.1198 29 20.8016 29C20.4833 29 20.1781 28.8736 19.953 28.6486C19.728 28.4235 19.6016 28.1183 19.6016 27.8V27.4H17.6016V27.8C17.6016 28.6487 17.9387 29.4627 18.5388 30.0628C19.1389 30.6629 19.9529 31 20.8016 31C21.6503 31 22.4642 30.6629 23.0643 30.0628C23.6644 29.4627 24.0016 28.6487 24.0016 27.8V27.4H22.0016Z" fill="black"/>
<path d="M28.5598 25.4C28.3062 25.3966 28.064 25.2944 27.8847 25.1151C27.7054 24.9358 27.6032 24.6936 27.5998 24.44V19.806C27.5981 18.177 27.0117 16.6028 25.9473 15.3697C24.8828 14.1366 23.4111 13.3266 21.7998 13.087V12.042C21.8091 11.7908 21.724 11.5451 21.5613 11.3534C21.3987 11.1617 21.1702 11.0378 20.9208 11.006C20.7808 10.993 20.6396 11.0091 20.5061 11.0533C20.3726 11.0974 20.2497 11.1687 20.145 11.2626C20.0403 11.3564 19.9561 11.4709 19.8978 11.5989C19.8394 11.7268 19.8081 11.8654 19.8058 12.006V13.086C18.1944 13.3256 16.7225 14.1357 15.658 15.369C14.5936 16.6024 14.0073 18.1768 14.0058 19.806V24.445C14.0024 24.6986 13.9002 24.9408 13.7209 25.1201C13.5416 25.2994 13.2994 25.4016 13.0458 25.405C12.7937 25.3947 12.547 25.4795 12.3544 25.6424C12.1618 25.8054 12.0374 26.0347 12.0058 26.285C11.9921 26.4254 12.0077 26.5671 12.0515 26.7012C12.0953 26.8353 12.1664 26.9589 12.2604 27.0641C12.3543 27.1694 12.4691 27.254 12.5974 27.3126C12.7257 27.3713 12.8647 27.4028 13.0058 27.405H28.6058C28.7469 27.4028 28.8859 27.3713 29.0142 27.3126C29.1425 27.254 29.2573 27.1694 29.3512 27.0641C29.4452 26.9589 29.5163 26.8353 29.5601 26.7012C29.6039 26.5671 29.6195 26.4254 29.6058 26.285C29.5753 26.0327 29.4505 25.8013 29.2565 25.6372C29.0625 25.473 28.8136 25.3883 28.5598 25.4ZM16.0058 25.4V19.961C15.9925 18.7535 16.4256 17.5835 17.2219 16.6757C18.0183 15.7679 19.1218 15.1861 20.3208 15.042C20.9876 14.9728 21.6616 15.0445 22.299 15.2524C22.9363 15.4604 23.5229 15.7999 24.0206 16.2491C24.5183 16.6982 24.9161 17.247 25.1881 17.8597C25.4602 18.4725 25.6004 19.1356 25.5998 19.806V25.406L16.0058 25.4Z" fill="black"/>
<defs>
<filter id="filter0_b_414_1285" x="-18" y="-18" width="78" height="78" filterUnits="userSpaceOnUse" color-interpolation-filters="sRGB">
<feFlood flood-opacity="0" result="BackgroundImageFix"/>
<feGaussianBlur in="BackgroundImage" stdDeviation="9"/>
<feComposite in2="SourceAlpha" operator="in" result="effect1_backgroundBlur_414_1285"/>
<feBlend mode="normal" in="SourceGraphic" in2="effect1_backgroundBlur_414_1285" result="shape"/>
</filter>
<linearGradient id="paint0_linear_414_1285" x1="4.75197" y1="-7.57143" x2="21.1214" y2="-2.08883" gradientUnits="userSpaceOnUse">
<stop stop-color="black"/>
<stop offset="1" stop-color="black" stop-opacity="0"/>
</linearGradient>
</defs>
</svg>
