<svg width="20" height="20" viewBox="0 0 20 20" fill="none" xmlns="http://www.w3.org/2000/svg">
<path d="M10 0C8.02219 0 6.08879 0.58649 4.4443 1.6853C2.79981 2.78412 1.51809 4.3459 0.761209 6.17317C0.00433284 8.00043 -0.193701 10.0111 0.192152 11.9509C0.578004 13.8907 1.53041 15.6725 2.92894 17.0711C4.32746 18.4696 6.10929 19.422 8.0491 19.8079C9.98891 20.1937 11.9996 19.9957 13.8268 19.2388C15.6541 18.4819 17.2159 17.2002 18.3147 15.5557C19.4135 13.9112 20 11.9778 20 10C20 7.34784 18.9464 4.8043 17.0711 2.92893C15.1957 1.05357 12.6522 0 10 0V0ZM10 18C8.41775 18 6.87104 17.5308 5.55544 16.6518C4.23985 15.7727 3.21447 14.5233 2.60897 13.0615C2.00347 11.5997 1.84504 9.99113 2.15372 8.43928C2.4624 6.88743 3.22433 5.46197 4.34315 4.34315C5.46197 3.22433 6.88743 2.4624 8.43928 2.15372C9.99113 1.84504 11.5997 2.00346 13.0615 2.60896C14.5233 3.21446 15.7727 4.23984 16.6518 5.55544C17.5308 6.87103 18 8.41775 18 10C17.9937 12.1198 17.1488 14.1509 15.6499 15.6499C14.1509 17.1488 12.1198 17.9937 10 18Z" fill="white"/>
<path d="M7 7.8418H8.25244C8.33301 6.79443 9.03613 6.14258 10.1421 6.14258C11.2334 6.14258 11.9365 6.80908 11.9365 7.71729C11.9365 8.50098 11.6069 8.9624 10.7573 9.48242C9.75391 10.083 9.28516 10.7422 9.29248 11.709V12.3828H10.5742V11.9067C10.5742 11.1377 10.8379 10.7275 11.7681 10.1782C12.7056 9.61426 13.2988 8.80127 13.2988 7.65137C13.2988 6.14258 12.0391 5 10.1934 5C8.13525 5 7.08057 6.25977 7 7.8418ZM9.93701 15.7227C10.4131 15.7227 10.772 15.3564 10.772 14.8877C10.772 14.4116 10.4131 14.0527 9.93701 14.0527C9.46826 14.0527 9.10205 14.4116 9.10205 14.8877C9.10205 15.3564 9.46826 15.7227 9.93701 15.7227Z" fill="white"/>
<path fill-rule="evenodd" clip-rule="evenodd" d="M6.68457 8.14175L6.70063 7.82649C6.74408 6.97329 7.052 6.18621 7.64696 5.61177C8.24358 5.03572 9.10139 4.69995 10.1936 4.69995C12.1641 4.69995 13.5991 5.93871 13.5991 7.65132C13.5991 8.92919 12.9293 9.82986 11.9229 10.4352L11.9209 10.4365C11.4673 10.7044 11.2149 10.917 11.0705 11.129C10.9333 11.3302 10.8745 11.5592 10.8745 11.9067V12.6828H8.99272V11.71C8.98884 11.1736 9.11829 10.7071 9.39689 10.2913C9.67178 9.88108 10.0794 9.53879 10.6022 9.22575C11.0112 8.97524 11.2639 8.75693 11.4174 8.53039C11.5655 8.31191 11.6368 8.06267 11.6368 7.71724C11.6368 7.34463 11.4945 7.03341 11.2484 6.81259C11.0003 6.58993 10.6271 6.44253 10.1423 6.44253C9.64887 6.44253 9.27324 6.587 9.0145 6.82161C8.75631 7.05574 8.58721 7.40431 8.55179 7.86476L8.53049 8.14175H6.68457ZM10.7576 9.48237C9.75414 10.083 9.28539 10.7421 9.29272 11.7089V12.3828H10.5745V11.9067C10.5745 11.1376 10.8381 10.7275 11.7683 10.1782C12.7058 9.61421 13.2991 8.80122 13.2991 7.65132C13.2991 6.14253 12.0393 4.99995 10.1936 4.99995C8.26741 4.99995 7.22013 6.10339 7.02774 7.54175C7.01457 7.64026 7.0054 7.74034 7.00024 7.84175H8.25268C8.33324 6.79438 9.03637 6.14253 10.1423 6.14253C11.2336 6.14253 11.9368 6.80903 11.9368 7.71724C11.9368 8.50093 11.6072 8.96235 10.7576 9.48237ZM11.0722 14.8876C11.0722 15.5203 10.5807 16.0226 9.93725 16.0226C9.30281 16.0226 8.80229 15.5221 8.80229 14.8876C8.80229 14.2442 9.30455 13.7527 9.93725 13.7527C10.579 13.7527 11.0722 14.2459 11.0722 14.8876ZM10.7722 14.8876C10.7722 15.3564 10.4133 15.7226 9.93725 15.7226C9.4685 15.7226 9.10229 15.3564 9.10229 14.8876C9.10229 14.4116 9.4685 14.0527 9.93725 14.0527C10.4133 14.0527 10.7722 14.4116 10.7722 14.8876Z" fill="white"/>
</svg>
