<svg width="48" height="48" viewBox="0 0 48 48" fill="none" xmlns="http://www.w3.org/2000/svg">
<path d="M24.0001 30.75C23.8899 30.75 23.781 30.7257 23.6813 30.6788L10.9313 24.6788C10.8025 24.6182 10.6935 24.5222 10.6172 24.402C10.5409 24.2818 10.5004 24.1424 10.5004 24C10.5004 23.8577 10.5409 23.7182 10.6172 23.598C10.6935 23.4778 10.8025 23.3819 10.9313 23.3213L23.6813 17.3213C23.781 17.2745 23.8899 17.2502 24.0001 17.2502C24.1102 17.2502 24.2191 17.2745 24.3188 17.3213L37.0688 23.3213C37.1977 23.3819 37.3066 23.4778 37.3829 23.598C37.4592 23.7182 37.4997 23.8577 37.4997 24C37.4997 24.1424 37.4592 24.2818 37.3829 24.402C37.3066 24.5222 37.1977 24.6182 37.0688 24.6788L24.3188 30.6788C24.2191 30.7257 24.1103 30.75 24.0001 30.75ZM13.0126 24L24.0001 29.1713L34.9876 24L24.0001 18.8288L13.0126 24Z" fill="white"/>
<path d="M15.75 31.3988C15.5511 31.3988 15.3603 31.3197 15.2197 31.1791C15.079 31.0384 15 30.8477 15 30.6488V26.625C15 26.4261 15.079 26.2353 15.2197 26.0947C15.3603 25.954 15.5511 25.875 15.75 25.875C15.9489 25.875 16.1397 25.954 16.2803 26.0947C16.421 26.2353 16.5 26.4261 16.5 26.625V30.6488C16.5 30.8477 16.421 31.0384 16.2803 31.1791C16.1397 31.3197 15.9489 31.3988 15.75 31.3988Z" fill="white"/>
<path d="M32.25 31.3988C32.0511 31.3988 31.8603 31.3197 31.7197 31.1791C31.579 31.0384 31.5 30.8477 31.5 30.6488V26.625C31.5 26.4261 31.579 26.2353 31.7197 26.0947C31.8603 25.954 32.0511 25.875 32.25 25.875C32.4489 25.875 32.6397 25.954 32.7803 26.0947C32.921 26.2353 33 26.4261 33 26.625V30.6488C33 30.8477 32.921 31.0384 32.7803 31.1791C32.6397 31.3197 32.4489 31.3988 32.25 31.3988Z" fill="white"/>
<path d="M24 35.625C19.1512 35.625 15 32.8875 15 30.6487C15 30.4498 15.079 30.2591 15.2197 30.1184C15.3603 29.9778 15.5511 29.8987 15.75 29.8987C15.9489 29.8987 16.1397 29.9778 16.2803 30.1184C16.421 30.2591 16.5 30.4498 16.5 30.6487C16.5 31.8075 19.7437 34.125 24 34.125C28.2563 34.125 31.5 31.8075 31.5 30.6487C31.5 30.4498 31.579 30.2591 31.7197 30.1184C31.8603 29.9778 32.0511 29.8987 32.25 29.8987C32.4489 29.8987 32.6397 29.9778 32.7803 30.1184C32.921 30.2591 33 30.4498 33 30.6487C33 32.8875 28.8488 35.625 24 35.625Z" fill="white"/>
<path d="M45.75 42H2.25C1.65326 42 1.08097 41.7629 0.65901 41.341C0.237053 40.919 0 40.3467 0 39.75L0 12.75C0 12.1533 0.237053 11.581 0.65901 11.159C1.08097 10.7371 1.65326 10.5 2.25 10.5H45.75C46.3467 10.5 46.919 10.7371 47.341 11.159C47.7629 11.581 48 12.1533 48 12.75V39.75C48 40.3467 47.7629 40.919 47.341 41.341C46.919 41.7629 46.3467 42 45.75 42ZM2.25 12C2.05109 12 1.86032 12.079 1.71967 12.2197C1.57902 12.3603 1.5 12.5511 1.5 12.75V39.75C1.5 39.9489 1.57902 40.1397 1.71967 40.2803C1.86032 40.421 2.05109 40.5 2.25 40.5H45.75C45.9489 40.5 46.1397 40.421 46.2803 40.2803C46.421 40.1397 46.5 39.9489 46.5 39.75V12.75C46.5 12.5511 46.421 12.3603 46.2803 12.2197C46.1397 12.079 45.9489 12 45.75 12H2.25Z" fill="white"/>
<path d="M36.375 48H11.625C11.4261 48 11.2353 47.921 11.0947 47.7803C10.954 47.6397 10.875 47.4489 10.875 47.25C10.875 47.0511 10.954 46.8603 11.0947 46.7197C11.2353 46.579 11.4261 46.5 11.625 46.5H36.375C36.5739 46.5 36.7647 46.579 36.9053 46.7197C37.046 46.8603 37.125 47.0511 37.125 47.25C37.125 47.4489 37.046 47.6397 36.9053 47.7803C36.7647 47.921 36.5739 48 36.375 48Z" fill="white"/>
<path d="M24 48C23.8011 48 23.6103 47.921 23.4697 47.7803C23.329 47.6397 23.25 47.4489 23.25 47.25V41.25C23.25 41.0511 23.329 40.8603 23.4697 40.7197C23.6103 40.579 23.8011 40.5 24 40.5C24.1989 40.5 24.3897 40.579 24.5303 40.7197C24.671 40.8603 24.75 41.0511 24.75 41.25V47.25C24.75 47.4489 24.671 47.6397 24.5303 47.7803C24.3897 47.921 24.1989 48 24 48Z" fill="white"/>
<path d="M27.75 12C27.5511 12 27.3603 11.921 27.2197 11.7803C27.079 11.6397 27 11.4489 27 11.25C27 10.0087 25.6537 9 24 9C22.3463 9 21 10.0087 21 11.25C21 11.4489 20.921 11.6397 20.7803 11.7803C20.6397 11.921 20.4489 12 20.25 12C20.0511 12 19.8603 11.921 19.7197 11.7803C19.579 11.6397 19.5 11.4489 19.5 11.25C19.5 9.18375 21.5175 7.5 24 7.5C26.4825 7.5 28.5 9.18375 28.5 11.25C28.5 11.4489 28.421 11.6397 28.2803 11.7803C28.1397 11.921 27.9489 12 27.75 12Z" fill="white"/>
<path d="M26.25 9.37502C26.1186 9.37592 25.9893 9.3423 25.875 9.27752C25.7891 9.22852 25.7137 9.163 25.6531 9.08474C25.5926 9.00648 25.5482 8.91703 25.5224 8.82152C25.4966 8.72602 25.49 8.62635 25.5029 8.52827C25.5157 8.43018 25.5479 8.33562 25.5975 8.25002L30.0975 0.37502C30.1467 0.289332 30.2124 0.214183 30.2907 0.153864C30.3689 0.0935444 30.4584 0.0492356 30.5538 0.0234674C30.6492 -0.00230087 30.7487 -0.00902398 30.8467 0.00368192C30.9447 0.0163878 31.0393 0.0482739 31.125 0.0975196C31.2107 0.146765 31.2858 0.212406 31.3461 0.290694C31.4065 0.368983 31.4508 0.458385 31.4765 0.553797C31.5023 0.649209 31.509 0.748763 31.4963 0.846773C31.4836 0.944784 31.4517 1.03933 31.4025 1.12502L26.9025 9.00002C26.8364 9.11447 26.7413 9.20943 26.6267 9.27528C26.5121 9.34114 26.3821 9.37554 26.25 9.37502Z" fill="white"/>
<path d="M21.75 9.37502C21.6179 9.37555 21.4879 9.34114 21.3733 9.27529C21.2587 9.20944 21.1636 9.11447 21.0975 9.00002L16.5975 1.12502C16.4981 0.951968 16.4714 0.746493 16.5235 0.553799C16.5755 0.361106 16.702 0.196978 16.875 0.0975214C17.0481 -0.00193474 17.2535 -0.0285721 17.4462 0.0234692C17.6389 0.0755106 17.8031 0.201968 17.9025 0.375021L22.4025 8.25002C22.4521 8.33562 22.4843 8.43019 22.4972 8.52827C22.51 8.62636 22.5034 8.72602 22.4776 8.82152C22.4518 8.91703 22.4074 9.00649 22.3469 9.08475C22.2864 9.16301 22.211 9.22852 22.125 9.27752C22.0107 9.34231 21.8814 9.37593 21.75 9.37502Z" fill="white"/>
</svg>
