<svg width="48" height="48" viewBox="0 0 48 48" fill="none" xmlns="http://www.w3.org/2000/svg">
<path d="M47.25 6.75H38.25V0.75C38.25 0.551088 38.171 0.360322 38.0303 0.21967C37.8897 0.0790176 37.6989 0 37.5 0C37.3011 0 37.1103 0.0790176 36.9697 0.21967C36.829 0.360322 36.75 0.551088 36.75 0.75V6.75H11.25V0.75C11.25 0.551088 11.171 0.360322 11.0303 0.21967C10.8897 0.0790176 10.6989 0 10.5 0C10.3011 0 10.1103 0.0790176 9.96967 0.21967C9.82902 0.360322 9.75 0.551088 9.75 0.75V6.75H0.75C0.551088 6.75 0.360322 6.82902 0.21967 6.96967C0.0790176 7.11032 0 7.30109 0 7.5L0 47.25C0 47.4489 0.0790176 47.6397 0.21967 47.7803C0.360322 47.921 0.551088 48 0.75 48H47.25C47.4489 48 47.6397 47.921 47.7803 47.7803C47.921 47.6397 48 47.4489 48 47.25V7.5C48 7.30109 47.921 7.11032 47.7803 6.96967C47.6397 6.82902 47.4489 6.75 47.25 6.75ZM46.5 46.5H1.5V8.25H9.75V15C9.75 15.1989 9.82902 15.3897 9.96967 15.5303C10.1103 15.671 10.3011 15.75 10.5 15.75C10.6989 15.75 10.8897 15.671 11.0303 15.5303C11.171 15.3897 11.25 15.1989 11.25 15V8.25H36.75V15C36.75 15.1989 36.829 15.3897 36.9697 15.5303C37.1103 15.671 37.3011 15.75 37.5 15.75C37.6989 15.75 37.8897 15.671 38.0303 15.5303C38.171 15.3897 38.25 15.1989 38.25 15V8.25H46.5V46.5Z" fill="#FBFBFB"/>
<path d="M10.5 27C9.90666 27 9.32664 26.8241 8.83329 26.4944C8.33994 26.1648 7.95543 25.6962 7.72836 25.1481C7.5013 24.5999 7.44189 23.9967 7.55765 23.4147C7.6734 22.8328 7.95912 22.2982 8.37868 21.8787C8.79824 21.4591 9.33279 21.1734 9.91473 21.0576C10.4967 20.9419 11.0999 21.0013 11.6481 21.2284C12.1962 21.4554 12.6648 21.8399 12.9944 22.3333C13.3241 22.8266 13.5 23.4067 13.5 24C13.5 24.7957 13.1839 25.5587 12.6213 26.1213C12.0587 26.6839 11.2957 27 10.5 27ZM10.5 22.5C10.2033 22.5 9.91332 22.588 9.66665 22.7528C9.41997 22.9176 9.22771 23.1519 9.11418 23.426C9.00065 23.7001 8.97095 24.0017 9.02882 24.2926C9.0867 24.5836 9.22956 24.8509 9.43934 25.0607C9.64912 25.2704 9.91639 25.4133 10.2074 25.4712C10.4983 25.5291 10.7999 25.4994 11.074 25.3858C11.3481 25.2723 11.5824 25.08 11.7472 24.8334C11.912 24.5867 12 24.2967 12 24C12 23.6022 11.842 23.2206 11.5607 22.9393C11.2794 22.658 10.8978 22.5 10.5 22.5Z" fill="#FBFBFB"/>
<path d="M24 27C23.4067 27 22.8266 26.8241 22.3333 26.4944C21.8399 26.1648 21.4554 25.6962 21.2284 25.1481C21.0013 24.5999 20.9419 23.9967 21.0576 23.4147C21.1734 22.8328 21.4591 22.2982 21.8787 21.8787C22.2982 21.4591 22.8328 21.1734 23.4147 21.0576C23.9967 20.9419 24.5999 21.0013 25.1481 21.2284C25.6962 21.4554 26.1648 21.8399 26.4944 22.3333C26.8241 22.8266 27 23.4067 27 24C27 24.7957 26.6839 25.5587 26.1213 26.1213C25.5587 26.6839 24.7957 27 24 27ZM24 22.5C23.7033 22.5 23.4133 22.588 23.1666 22.7528C22.92 22.9176 22.7277 23.1519 22.6142 23.426C22.5007 23.7001 22.4709 24.0017 22.5288 24.2926C22.5867 24.5836 22.7296 24.8509 22.9393 25.0607C23.1491 25.2704 23.4164 25.4133 23.7074 25.4712C23.9983 25.5291 24.2999 25.4994 24.574 25.3858C24.8481 25.2723 25.0824 25.08 25.2472 24.8334C25.412 24.5867 25.5 24.2967 25.5 24C25.5 23.6022 25.342 23.2206 25.0607 22.9393C24.7794 22.658 24.3978 22.5 24 22.5Z" fill="#FBFBFB"/>
<path d="M10.5 39.75C9.90666 39.75 9.32664 39.574 8.83329 39.2444C8.33994 38.9148 7.95543 38.4462 7.72836 37.898C7.5013 37.3499 7.44189 36.7467 7.55765 36.1647C7.6734 35.5828 7.95912 35.0482 8.37868 34.6287C8.79824 34.2091 9.33279 33.9234 9.91473 33.8076C10.4967 33.6919 11.0999 33.7513 11.6481 33.9784C12.1962 34.2054 12.6648 34.5899 12.9944 35.0833C13.3241 35.5766 13.5 36.1567 13.5 36.75C13.5 37.5456 13.1839 38.3087 12.6213 38.8713C12.0587 39.4339 11.2957 39.75 10.5 39.75ZM10.5 35.25C10.2033 35.25 9.91332 35.338 9.66665 35.5028C9.41997 35.6676 9.22771 35.9019 9.11418 36.176C9.00065 36.4501 8.97095 36.7517 9.02882 37.0426C9.0867 37.3336 9.22956 37.6009 9.43934 37.8107C9.64912 38.0204 9.91639 38.1633 10.2074 38.2212C10.4983 38.279 10.7999 38.2493 11.074 38.1358C11.3481 38.0223 11.5824 37.83 11.7472 37.5833C11.912 37.3367 12 37.0467 12 36.75C12 36.3522 11.842 35.9706 11.5607 35.6893C11.2794 35.408 10.8978 35.25 10.5 35.25Z" fill="#FBFBFB"/>
<path d="M24 39.75C23.4067 39.75 22.8266 39.574 22.3333 39.2444C21.8399 38.9148 21.4554 38.4462 21.2284 37.898C21.0013 37.3499 20.9419 36.7467 21.0576 36.1647C21.1734 35.5828 21.4591 35.0482 21.8787 34.6287C22.2982 34.2091 22.8328 33.9234 23.4147 33.8076C23.9967 33.6919 24.5999 33.7513 25.1481 33.9784C25.6962 34.2054 26.1648 34.5899 26.4944 35.0833C26.8241 35.5766 27 36.1567 27 36.75C27 37.5456 26.6839 38.3087 26.1213 38.8713C25.5587 39.4339 24.7957 39.75 24 39.75ZM24 35.25C23.7033 35.25 23.4133 35.338 23.1666 35.5028C22.92 35.6676 22.7277 35.9019 22.6142 36.176C22.5007 36.4501 22.4709 36.7517 22.5288 37.0426C22.5867 37.3336 22.7296 37.6009 22.9393 37.8107C23.1491 38.0204 23.4164 38.1633 23.7074 38.2212C23.9983 38.279 24.2999 38.2493 24.574 38.1358C24.8481 38.0223 25.0824 37.83 25.2472 37.5833C25.412 37.3367 25.5 37.0467 25.5 36.75C25.5 36.3522 25.342 35.9706 25.0607 35.6893C24.7794 35.408 24.3978 35.25 24 35.25Z" fill="#FBFBFB"/>
<path d="M37.5 27C36.9067 27 36.3266 26.8241 35.8333 26.4944C35.3399 26.1648 34.9554 25.6962 34.7284 25.1481C34.5013 24.5999 34.4419 23.9967 34.5576 23.4147C34.6734 22.8328 34.9591 22.2982 35.3787 21.8787C35.7982 21.4591 36.3328 21.1734 36.9147 21.0576C37.4967 20.9419 38.0999 21.0013 38.648 21.2284C39.1962 21.4554 39.6648 21.8399 39.9944 22.3333C40.324 22.8266 40.5 23.4067 40.5 24C40.5 24.7957 40.1839 25.5587 39.6213 26.1213C39.0587 26.6839 38.2956 27 37.5 27ZM37.5 22.5C37.2033 22.5 36.9133 22.588 36.6666 22.7528C36.42 22.9176 36.2277 23.1519 36.1142 23.426C36.0006 23.7001 35.9709 24.0017 36.0288 24.2926C36.0867 24.5836 36.2296 24.8509 36.4393 25.0607C36.6491 25.2704 36.9164 25.4133 37.2074 25.4712C37.4983 25.5291 37.7999 25.4994 38.074 25.3858C38.3481 25.2723 38.5824 25.08 38.7472 24.8334C38.912 24.5867 39 24.2967 39 24C39 23.6022 38.842 23.2206 38.5607 22.9393C38.2794 22.658 37.8978 22.5 37.5 22.5Z" fill="#FBFBFB"/>
<path d="M40.6987 41.7225C40.613 41.722 40.528 41.7067 40.4475 41.6775L37.5 40.6312L34.5525 41.6775C34.4376 41.7189 34.3144 41.7317 34.1935 41.7147C34.0726 41.6977 33.9577 41.6515 33.8587 41.58C33.76 41.508 33.6804 41.4129 33.6268 41.3031C33.5732 41.1933 33.5473 41.0721 33.5512 40.95L33.6375 37.8225L31.7287 35.3437C31.6542 35.2477 31.6041 35.1349 31.5828 35.0151C31.5616 34.8954 31.5697 34.7723 31.6067 34.6564C31.6436 34.5405 31.7081 34.4354 31.7947 34.35C31.8813 34.2646 31.9873 34.2015 32.1037 34.1662L35.1037 33.2812L36.8737 30.7012C36.9426 30.6007 37.0349 30.5184 37.1427 30.4616C37.2506 30.4048 37.3706 30.3751 37.4925 30.3751C37.6143 30.3751 37.7344 30.4048 37.8422 30.4616C37.95 30.5184 38.0423 30.6007 38.1112 30.7012L39.8812 33.2812L42.8812 34.1662C42.9976 34.2015 43.1037 34.2646 43.1903 34.35C43.2769 34.4354 43.3414 34.5405 43.3783 34.6564C43.4152 34.7723 43.4234 34.8954 43.4021 35.0151C43.3808 35.1349 43.3308 35.2477 43.2562 35.3437L41.3475 37.8225L41.4337 40.95C41.4367 41.0504 41.4196 41.1503 41.3832 41.2439C41.3469 41.3375 41.2921 41.4229 41.2222 41.4949C41.1522 41.567 41.0685 41.6242 40.976 41.6633C40.8835 41.7024 40.7841 41.7225 40.6837 41.7225H40.6987ZM37.5 39.0975C37.5855 39.0962 37.6706 39.1102 37.7512 39.1387L39.9187 39.9112L39.855 37.6087C39.8495 37.4341 39.9052 37.263 40.0125 37.125L41.415 35.2987L39.2062 34.65C39.0412 34.6007 38.8982 34.4961 38.8012 34.3537L37.5 32.4525L36.1987 34.35C36.1017 34.4923 35.9587 34.5969 35.7937 34.6462L33.585 35.295L34.9875 37.125C35.0931 37.261 35.1487 37.4291 35.145 37.6012L35.0812 39.9037L37.2487 39.1312C37.3291 39.1014 37.4142 39.0862 37.5 39.0862V39.0975Z" fill="#FBFBFB"/>
</svg>
