<svg width="48" height="44" viewBox="0 0 48 44" fill="none" xmlns="http://www.w3.org/2000/svg">
<path d="M47.1829 20.6427C44.3065 20.5421 41.4921 20.9649 38.8478 21.8684C38.7952 19.0442 38.2279 16.2756 37.1554 13.6213C36.9801 13.1879 36.4874 12.9785 36.0531 13.1535C34.378 13.8303 32.8092 14.6851 31.3588 15.7072C29.6177 12.2731 27.3475 9.14373 24.5976 6.39488C24.2669 6.06432 23.731 6.06432 23.4005 6.39498C20.6494 9.14607 18.3795 12.275 16.6397 15.7059C15.1901 14.6844 13.6219 13.83 11.9473 13.1535C11.5135 12.9784 11.0204 13.1878 10.8452 13.6213C9.77087 16.2799 9.20322 19.0531 9.15212 21.8821C6.5439 20.9858 3.73318 20.5411 0.817088 20.6427C0.349744 20.6591 -0.0157871 21.0511 0.000525419 21.5184C0.438057 34.0466 10.7685 43.9402 23.2083 43.9402C23.4708 43.9402 23.7357 43.9354 24.0001 43.9267C24.2651 43.9356 24.5287 43.9402 24.792 43.9402C37.2306 43.9402 47.5622 34.046 47.9996 21.5184C48.0157 21.0511 47.6502 20.659 47.1829 20.6427ZM12.1071 15.0625C14.4927 16.1364 16.6306 17.6111 18.4719 19.4545C20.4487 21.4302 21.9991 23.7392 23.0867 26.3201C22.3611 28.1943 21.8852 30.1315 21.6633 32.1076C19.1675 27.8698 15.3692 24.5023 10.8427 22.5377C10.815 19.9853 11.2393 17.477 12.1071 15.0625ZM1.73996 22.3217C7.17306 22.3449 12.3213 24.3816 16.3175 28.1083C20.3141 31.8352 22.705 36.828 23.1069 42.2468C11.9068 42.1941 2.57368 33.4909 1.73996 22.3217ZM19.6693 18.2574C19.1384 17.7259 18.5841 17.2236 18.0086 16.7496C19.5593 13.6224 21.5704 10.754 23.9993 8.20548C26.4269 10.7522 28.4378 13.6209 29.9898 16.7509C29.4148 17.2244 28.861 17.7261 28.3305 18.257C26.5649 20.0216 25.1139 22.0344 23.9999 24.2568C22.8868 22.0355 21.4359 20.0229 19.6693 18.2574ZM23.9966 37.582C23.7765 36.7979 23.5166 36.031 23.2189 35.2836C23.2133 35.1027 23.2105 34.9116 23.2105 34.702C23.2105 31.9272 23.7402 29.2104 24.7847 26.6265C25.8787 23.9193 27.4744 21.5063 29.5279 19.4542C31.37 17.6109 33.5082 16.1363 35.8936 15.0625C36.7594 17.4717 37.1835 19.9743 37.1578 22.5209C34.7465 23.5641 32.5063 25.0248 30.5279 26.8698C27.3608 29.823 25.13 33.514 23.9966 37.582ZM24.8931 42.2467C25.2951 36.828 27.6858 31.8352 31.6824 28.1082C35.6791 24.3812 40.8264 22.3446 46.2601 22.3216C45.4262 33.4915 36.0942 42.1951 24.8931 42.2467Z" fill="white"/>
<path d="M1.32065 18.1691C1.78825 18.1691 2.16731 17.79 2.16731 17.3224C2.16731 16.8548 1.78825 16.4758 1.32065 16.4758C0.85306 16.4758 0.473999 16.8548 0.473999 17.3224C0.473999 17.79 0.85306 18.1691 1.32065 18.1691Z" fill="white"/>
<path d="M11.6303 8.76924C12.0979 8.76924 12.477 8.39018 12.477 7.92258C12.477 7.45499 12.0979 7.07593 11.6303 7.07593C11.1628 7.07593 10.7837 7.45499 10.7837 7.92258C10.7837 8.39018 11.1628 8.76924 11.6303 8.76924Z" fill="white"/>
<path d="M23.9992 1.75307C24.4668 1.75307 24.8459 1.374 24.8459 0.90641C24.8459 0.438814 24.4668 0.0597534 23.9992 0.0597534C23.5316 0.0597534 23.1526 0.438814 23.1526 0.90641C23.1526 1.374 23.5316 1.75307 23.9992 1.75307Z" fill="white"/>
<path d="M36.3702 8.76924C36.8378 8.76924 37.2169 8.39018 37.2169 7.92258C37.2169 7.45499 36.8378 7.07593 36.3702 7.07593C35.9026 7.07593 35.5236 7.45499 35.5236 7.92258C35.5236 8.39018 35.9026 8.76924 36.3702 8.76924Z" fill="white"/>
<path d="M46.6777 18.1691C47.1453 18.1691 47.5244 17.79 47.5244 17.3224C47.5244 16.8548 47.1453 16.4758 46.6777 16.4758C46.2101 16.4758 45.8311 16.8548 45.8311 17.3224C45.8311 17.79 46.2101 18.1691 46.6777 18.1691Z" fill="white"/>
</svg>
