<svg width="48" height="42" viewBox="0 0 48 42" fill="#13C5C3" stroke="#13C5C3" xmlns="http://www.w3.org/2000/svg">
<path d="M0.703125 22.1056H2.70044C4.81384 26.6678 8.2522 30.6013 12.1593 33.8624C17.8824 38.6389 23.5133 41.0881 23.7502 41.1899C23.9297 41.2672 24.1311 41.2657 24.3073 41.1895C24.524 41.0954 29.6814 38.8407 35.139 34.4487C39.2911 31.1074 43.0389 26.9813 45.297 22.1056H47.2969C47.6854 22.1056 48 21.7906 48 21.4024C48 21.0143 47.6854 20.6993 47.2969 20.6993H45.8983C46.6809 18.7035 47.1841 16.6651 47.4001 14.599C47.4408 14.2126 47.1603 13.8669 46.7739 13.8266C46.3872 13.7864 46.0419 14.0665 46.0016 14.4529C45.7687 16.6791 45.1879 18.7639 44.3712 20.6993H40.3953L38.1233 11.4924C37.9413 10.7552 36.8723 10.7944 36.7471 11.5451L34.5359 24.7925L31.6685 15.7357C31.4674 15.1003 30.5801 15.0824 30.3428 15.6939L28.4011 20.6993H20.7799L18.4058 10.4245C18.2358 9.69028 17.1866 9.7031 17.0325 10.4385L13.7263 26.1877L10.3121 15.7298C10.1038 15.0915 9.20361 15.0809 8.98022 15.7141L7.22278 20.6989H3.63318C2.55396 18.1402 1.88452 15.3153 1.88123 12.2417C1.8761 7.10264 5.53015 2.67478 10.5699 1.71384C10.9515 1.64133 11.202 1.27292 11.1292 0.891331C11.0563 0.510106 10.6882 0.259618 10.307 0.332494C4.60364 1.42014 0.469116 6.42917 0.474976 12.2435C0.477905 15.1227 1.02319 17.9524 2.09949 20.6993H0.703125C0.314575 20.6993 0 21.0139 0 21.4024C0 21.7906 0.314575 22.1056 0.703125 22.1056ZM7.72046 22.1056C8.01855 22.1056 8.28442 21.9173 8.38367 21.6361L9.61816 18.1355L13.2059 29.1244C13.4297 29.8095 14.4152 29.7528 14.5627 29.0508L17.7535 13.849L19.5355 21.5606C19.6091 21.8796 19.8933 22.1056 20.2207 22.1056H28.8831C29.1731 22.1056 29.4335 21.9272 29.5386 21.657L30.9313 18.0659L34.0778 28.0049C34.2997 28.7047 35.3207 28.6351 35.4419 27.9082L37.5736 15.1351L39.1619 21.5709C39.2391 21.8851 39.5211 22.1056 39.8445 22.1056H43.7249C39.8705 29.8469 31.5341 36.2922 24.0271 39.7727C16.4637 36.2878 8.13245 29.8506 4.27917 22.1056H7.72046Z" stroke="#13C5C3" fill="#13C5C3"/>
<path d="M35.398 0.09375C31.0697 0.0985107 27.0535 2.43311 24.8987 6.19189C24.3538 6.83423 23.6301 6.8324 23.0871 6.19226C21.1352 2.80554 17.6646 0.558838 13.789 0.176514C13.4019 0.13916 13.0584 0.420776 13.0203 0.807495C12.9822 1.19385 13.2646 1.53809 13.6513 1.57617C17.0962 1.91565 20.1801 3.92432 21.8994 6.94885C21.9976 7.12097 22.756 8.07971 23.9931 8.07971H23.9938C25.0053 8.07898 25.8435 7.37695 26.0885 6.94446C27.9708 3.61707 31.5268 1.5 35.4097 1.5C40.9336 1.5 45.62 5.80444 46.0803 11.3031C46.1111 11.6704 46.4184 11.9476 46.7802 11.9476C46.7999 11.9476 46.8197 11.9469 46.8399 11.9451C47.227 11.9128 47.5141 11.5726 47.4818 11.1855C46.9611 4.96765 41.755 0.09375 35.398 0.09375Z" fill="#13C5C3" stroke="#13C5C3"/>
</svg>
