<svg width="48" height="48" viewBox="0 0 48 48" fill="none" xmlns="http://www.w3.org/2000/svg">
<path d="M12.5175 35.4825C12.5872 35.5522 12.6699 35.6076 12.761 35.6453C12.852 35.683 12.9496 35.7025 13.0482 35.7025C13.1467 35.7025 13.2443 35.683 13.3354 35.6453C13.4264 35.6076 13.5091 35.5522 13.5788 35.4825L21.75 27.285C21.8908 27.1443 21.9698 26.9534 21.9698 26.7544C21.9698 26.5554 21.8908 26.3645 21.75 26.2238C21.6093 26.083 21.4184 26.004 21.2194 26.004C21.0204 26.004 20.8295 26.083 20.6888 26.2238L12.5175 34.425C12.3778 34.5655 12.2994 34.7556 12.2994 34.9538C12.2994 35.1519 12.3778 35.342 12.5175 35.4825Z" fill="white"/>
<path d="M27.2888 21.7725L35.4825 13.575C35.6232 13.4343 35.7023 13.2434 35.7023 13.0444C35.7023 12.8454 35.6232 12.6545 35.4825 12.5138C35.3418 12.373 35.1509 12.294 34.9519 12.294C34.7529 12.294 34.562 12.373 34.4213 12.5138L26.2313 20.7113C26.1616 20.7809 26.1063 20.8637 26.0686 20.9547C26.0309 21.0458 26.0115 21.1433 26.0115 21.2419C26.0115 21.3404 26.0309 21.438 26.0686 21.5291C26.1063 21.6201 26.1616 21.7028 26.2313 21.7725C26.3009 21.8422 26.3837 21.8975 26.4747 21.9352C26.5658 21.9729 26.6633 21.9923 26.7619 21.9923C26.8604 21.9923 26.958 21.9729 27.0491 21.9352C27.1401 21.8975 27.2228 21.8422 27.2925 21.7725H27.2888Z" fill="white"/>
<path d="M10.2676 48C11.6171 48.0054 12.9544 47.743 14.2019 47.2281C15.4493 46.7131 16.5823 45.9558 17.5351 45L22.8751 39.675C24.0862 38.463 24.9746 36.967 25.4593 35.3236C25.9441 33.6802 26.0096 31.9415 25.6501 30.2663C25.6013 30.0801 25.4827 29.9198 25.319 29.8186C25.1554 29.7174 24.959 29.6829 24.7706 29.7224C24.5823 29.7619 24.4163 29.8723 24.3071 30.0308C24.1979 30.1893 24.1537 30.3837 24.1838 30.5737C24.4916 32.0081 24.4346 33.4968 24.0179 34.9035C23.6012 36.3101 22.8382 37.5897 21.7988 38.625L16.4738 43.95C14.8167 45.5415 12.6017 46.42 10.3042 46.3968C8.00676 46.3736 5.80994 45.4506 4.18529 43.826C2.56065 42.2014 1.63768 40.0045 1.6145 37.7071C1.59132 35.4096 2.46978 33.1946 4.06131 31.5375L9.37506 26.2013C10.4043 25.1739 11.6727 24.4184 13.0663 24.0027C14.4599 23.5871 15.9349 23.5243 17.3588 23.82C17.5537 23.8598 17.7565 23.8205 17.9225 23.7108C18.0884 23.6011 18.204 23.4299 18.2438 23.235C18.2836 23.0401 18.2443 22.8373 18.1346 22.6714C18.0249 22.5054 17.8537 22.3898 17.6588 22.35C15.9949 22.0043 14.2712 22.0768 12.6422 22.5611C11.0132 23.0454 9.52984 23.9264 8.32506 25.125L3.00006 30.465C1.56118 31.901 0.580947 33.7318 0.183565 35.7254C-0.213818 37.719 -0.010463 39.7857 0.767861 41.6637C1.54619 43.5416 2.86445 45.1462 4.55561 46.2742C6.24678 47.4023 8.23472 48.0029 10.2676 48Z" fill="white"/>
<path d="M37.7325 -9.55632e-06C36.3829 -0.00541976 35.0457 0.256949 33.7982 0.771905C32.5507 1.28686 31.4178 2.04417 30.465 2.99999L25.125 8.32499C23.9139 9.53701 23.0254 11.033 22.5407 12.6764C22.056 14.3198 21.9904 16.0585 22.35 17.7337C22.3988 17.9199 22.5173 18.0802 22.681 18.1814C22.8447 18.2826 23.041 18.3171 23.2294 18.2776C23.4178 18.2381 23.5837 18.1276 23.693 17.9692C23.8022 17.8107 23.8463 17.6163 23.8162 17.4262C23.5084 15.9919 23.5655 14.5032 23.9822 13.0965C24.3989 11.6899 25.1619 10.4103 26.2012 9.37499L31.5263 4.04999C33.1833 2.45846 35.3983 1.58 37.6958 1.60318C39.9933 1.62636 42.1901 2.54933 43.8148 4.17397C45.4394 5.79862 46.3624 7.99545 46.3856 10.2929C46.4087 12.5904 45.5303 14.8054 43.9388 16.4625L38.625 21.7987C37.5956 22.8259 36.3271 23.5812 34.9336 23.9968C33.5401 24.4124 32.0651 24.4754 30.6412 24.18C30.4463 24.1402 30.2436 24.1795 30.0776 24.2892C29.9116 24.3989 29.796 24.5701 29.7562 24.765C29.7165 24.9599 29.7558 25.1627 29.8655 25.3287C29.9752 25.4946 30.1463 25.6102 30.3413 25.65C31.0287 25.79 31.7285 25.8603 32.43 25.86C33.7774 25.8619 35.1119 25.5978 36.3571 25.083C37.6022 24.5682 38.7336 23.8128 39.6863 22.86L45 17.535C46.9208 15.604 47.9991 12.9911 47.9991 10.2675C47.9991 7.54385 46.9208 4.93097 45 2.99999C44.0472 2.04417 42.9143 1.28686 41.6668 0.771905C40.4193 0.256949 39.0821 -0.00541976 37.7325 -9.55632e-06Z" fill="white"/>
<path d="M12.9451 14.0062C13.0858 14.147 13.2767 14.226 13.4757 14.226C13.6747 14.226 13.8656 14.147 14.0063 14.0062C14.1471 13.8655 14.2261 13.6746 14.2261 13.4756C14.2261 13.2766 14.1471 13.0857 14.0063 12.945L6.37509 5.32875C6.23062 5.22553 6.05422 5.17691 5.87727 5.19155C5.70032 5.20618 5.53431 5.28312 5.40876 5.40867C5.28321 5.53422 5.20627 5.70023 5.19164 5.87718C5.17701 6.05413 5.22562 6.23053 5.32884 6.375L12.9451 14.0062Z" fill="white"/>
<path d="M33.9938 33.9938C33.924 34.0634 33.8687 34.1461 33.831 34.2372C33.7932 34.3282 33.7738 34.4258 33.7738 34.5244C33.7738 34.623 33.7932 34.7206 33.831 34.8116C33.8687 34.9026 33.924 34.9854 33.9938 35.055L41.625 42.6713C41.7658 42.812 41.9566 42.8911 42.1556 42.8911C42.3547 42.8911 42.5455 42.812 42.6863 42.6713C42.827 42.5305 42.9061 42.3397 42.9061 42.1406C42.9061 41.9416 42.827 41.7508 42.6863 41.61L35.055 33.9938C34.9854 33.924 34.9026 33.8687 34.8116 33.831C34.7206 33.7932 34.623 33.7738 34.5244 33.7738C34.4258 33.7738 34.3282 33.7932 34.2372 33.831C34.1461 33.8687 34.0634 33.924 33.9938 33.9938Z" fill="white"/>
<path d="M17.0288 10.8262C17.0616 10.9276 17.1157 11.0207 17.1873 11.0996C17.2589 11.1784 17.3465 11.241 17.4442 11.2834C17.5419 11.3257 17.6476 11.3467 17.754 11.3451C17.8605 11.3434 17.9654 11.3191 18.0618 11.2737C18.1581 11.2284 18.2437 11.163 18.3129 11.082C18.382 11.001 18.4331 10.9062 18.4627 10.8039C18.4924 10.7016 18.4999 10.5942 18.4848 10.4888C18.4697 10.3833 18.4323 10.2823 18.3751 10.1925L13.8376 0.435C13.7992 0.34089 13.7421 0.255558 13.6698 0.184186C13.5974 0.112813 13.5113 0.0568894 13.4167 0.0198098C13.3221 -0.0172697 13.2209 -0.0347315 13.1193 -0.0315152C13.0178 -0.0282989 12.9179 -0.00447168 12.8258 0.0385197C12.7337 0.0815112 12.6513 0.14277 12.5836 0.218576C12.5159 0.294383 12.4644 0.383156 12.432 0.479504C12.3997 0.575853 12.3873 0.677768 12.3955 0.779061C12.4038 0.880354 12.4326 0.978912 12.4801 1.06875L17.0288 10.8262Z" fill="white"/>
<path d="M29.9738 36.81C29.8834 36.8505 29.8019 36.9085 29.734 36.9807C29.6661 37.0529 29.6132 37.1378 29.5784 37.2306C29.5435 37.3233 29.5274 37.422 29.5309 37.5211C29.5344 37.6201 29.5575 37.7174 29.5988 37.8075L34.1513 47.5575C34.1929 47.6469 34.2518 47.7272 34.3244 47.7938C34.3971 47.8605 34.4821 47.9122 34.5747 47.9459C34.6674 47.9797 34.7657 47.9949 34.8642 47.9907C34.9628 47.9864 35.0595 47.9628 35.1488 47.9212C35.2382 47.8796 35.3185 47.8208 35.3852 47.7482C35.4518 47.6755 35.5035 47.5904 35.5373 47.4978C35.5711 47.4052 35.5863 47.3068 35.582 47.2083C35.5778 47.1098 35.5542 47.0131 35.5126 46.9237L30.9601 37.1737C30.8762 36.9959 30.7258 36.8582 30.5414 36.7902C30.3569 36.7221 30.1531 36.7293 29.9738 36.81Z" fill="white"/>
<path d="M0.431357 13.8375L10.1926 18.375C10.3708 18.4477 10.5702 18.449 10.7494 18.3788C10.9285 18.3086 11.0739 18.1722 11.1553 17.9978C11.2367 17.8234 11.248 17.6244 11.1867 17.4419C11.1255 17.2594 10.9965 17.1075 10.8264 17.0175L1.07636 12.465C0.894352 12.3795 0.685825 12.3697 0.496647 12.438C0.30747 12.5062 0.15314 12.6468 0.0676073 12.8288C-0.0179251 13.0108 -0.0276531 13.2193 0.0405633 13.4085C0.10878 13.5976 0.249352 13.752 0.431357 13.8375Z" fill="white"/>
<path d="M46.9312 35.52C47.1095 35.5927 47.3088 35.594 47.488 35.5238C47.6672 35.4536 47.8125 35.3172 47.8939 35.1428C47.9754 34.9684 47.9866 34.7694 47.9254 34.5869C47.8642 34.4044 47.7351 34.2525 47.565 34.1625L37.8075 29.625C37.627 29.541 37.4205 29.5321 37.2334 29.6003C37.0464 29.6685 36.8941 29.8083 36.81 29.9888C36.726 30.1693 36.7171 30.3758 36.7853 30.5629C36.8535 30.7499 36.9933 30.9022 37.1738 30.9863L46.9312 35.52Z" fill="white"/>
</svg>
