<svg width="48" height="44" viewBox="0 0 48 44" fill="none" xmlns="http://www.w3.org/2000/svg">
<path d="M41.8114 24.6553L44.3171 22.1496C49.2277 17.2389 49.2277 9.24882 44.3171 4.3382C39.4066 -0.572317 31.4164 -0.572317 26.5057 4.3382L24 6.84391L21.4943 4.3382C16.5837 -0.572411 8.59348 -0.572411 3.68296 4.3382C-1.22765 9.24882 -1.22765 17.2389 3.68296 22.1496L7.88718 26.3538C8.02447 26.4911 8.20451 26.5598 8.38446 26.5598C8.56441 26.5598 8.74445 26.4912 8.88174 26.3538C9.1564 26.0791 9.1564 25.6338 8.88174 25.3592L4.67752 21.155C0.315382 16.7928 0.315382 9.69508 4.67752 5.33276C9.03965 0.970625 16.1374 0.970625 20.4997 5.33276L23.0054 7.83847L19.5988 11.2451C18.1655 12.6784 18.1655 15.0105 19.5988 16.4438C21.0321 17.8772 23.3642 17.8772 24.7976 16.4438L29.9027 11.3387C30.1773 11.0641 30.1773 10.6187 29.9027 10.3442C29.628 10.0695 29.1827 10.0695 28.9081 10.3442L23.803 15.4493C23.3744 15.8779 22.8044 16.1139 22.1982 16.1139C21.592 16.1139 21.0221 15.8779 20.5934 15.4493C20.1648 15.0206 19.9288 14.4507 19.9288 13.8445C19.9288 13.2383 20.1648 12.6684 20.5934 12.2397L27.5003 5.33276C31.8625 0.970625 38.9602 0.970625 43.3224 5.33276C47.6847 9.6949 47.6847 16.7927 43.3224 21.1549L40.8167 23.6606L31.1041 13.948C30.8295 13.6733 30.3842 13.6733 30.1095 13.948C29.8349 14.2226 29.8349 14.668 30.1095 14.9425L43.0222 27.8553C43.4508 28.2839 43.6868 28.8539 43.6868 29.46C43.6868 30.0662 43.4508 30.6361 43.0222 31.0648C42.5935 31.4935 42.0236 31.7295 41.4174 31.7295C40.8112 31.7295 40.2413 31.4934 39.8126 31.0648L35.3081 26.5604C35.0335 26.2857 34.5881 26.2857 34.3136 26.5604C34.0389 26.835 34.0389 27.2803 34.3136 27.5549L38.2174 31.4588C38.6461 31.8874 38.8821 32.4574 38.8821 33.0635C38.8821 33.6698 38.646 34.2396 38.2173 34.6684C37.3325 35.5533 35.8927 35.5534 35.0078 34.6684L30.5033 30.1639C30.2286 29.8892 29.7833 29.8892 29.5087 30.1639C29.2341 30.4385 29.2341 30.8839 29.5087 31.1584L33.4126 35.0623C34.2975 35.9472 34.2975 37.387 33.4126 38.2719C32.9839 38.7005 32.414 38.9366 31.8078 38.9366C31.2016 38.9366 30.6316 38.7005 30.203 38.2719L25.6985 33.7674C25.4239 33.4927 24.9785 33.4927 24.704 33.7674C24.4293 34.042 24.4293 34.4874 24.704 34.7619L28.0074 38.0653C28.8922 38.9502 28.8921 40.3899 28.0073 41.2748C27.1225 42.1597 25.6827 42.1598 24.7977 41.2748L24.2693 40.7463C24.5328 40.2336 24.6732 39.6624 24.6732 39.0693C24.6732 38.0873 24.2908 37.1642 23.5965 36.4699C22.7332 35.6066 21.5441 35.2642 20.4215 35.4408C20.5981 34.3182 20.2556 33.129 19.3924 32.2658C18.5291 31.4026 17.34 31.0601 16.2174 31.2366C16.394 30.1141 16.0514 28.9248 15.1883 28.0617C13.755 26.6283 11.4229 26.6283 9.98948 28.0617C9.29509 28.756 8.91278 29.6792 8.91278 30.6611C8.91278 31.643 9.29518 32.5661 9.98948 33.2604C10.7062 33.9771 11.6475 34.3355 12.5889 34.3355C12.7814 34.3355 12.9738 34.3196 13.1644 34.2897C12.9879 35.4123 13.3304 36.6015 14.1936 37.4647C14.9103 38.1814 15.8516 38.5397 16.793 38.5397C16.9856 38.5397 17.178 38.5238 17.3687 38.4938C17.1921 39.6164 17.5346 40.8056 18.3978 41.6689C19.1145 42.3856 20.0558 42.7439 20.9972 42.7439C21.8515 42.7439 22.7051 42.4478 23.3914 41.8577L23.8033 42.2695C24.52 42.9862 25.4613 43.3445 26.4027 43.3445C27.3441 43.3445 28.2854 42.9862 29.0021 42.2695C29.6585 41.6131 30.0133 40.7681 30.0684 39.9073C30.597 40.192 31.1908 40.3432 31.8079 40.3432C32.7899 40.3432 33.713 39.9608 34.4073 39.2665C35.1514 38.5224 35.5082 37.5362 35.4797 36.5592C35.8474 36.6776 36.2299 36.7379 36.6127 36.7379C37.554 36.7379 38.4956 36.3795 39.2121 35.6629C39.9555 34.9195 40.3124 33.9342 40.2846 32.9579C40.6459 33.0745 41.0269 33.136 41.4174 33.136C42.3993 33.136 43.3224 32.7536 44.0168 32.0593C45.4501 30.626 45.4501 28.2938 44.0168 26.8605L41.8114 24.6553ZM10.9838 32.2661C10.5552 31.8374 10.3191 31.2675 10.3191 30.6613C10.3191 30.0551 10.5552 29.4852 10.9838 29.0565C11.4263 28.6141 12.0075 28.3929 12.5887 28.3929C13.1698 28.3929 13.751 28.6141 14.1934 29.0565C15.0784 29.9414 15.0784 31.3812 14.1934 32.2661C13.3085 33.151 11.8687 33.1509 10.9838 32.2661ZM15.1881 36.4702C14.3031 35.5853 14.3031 34.1455 15.1881 33.2606C15.6305 32.8182 16.2117 32.597 16.7928 32.597C17.374 32.597 17.9552 32.8182 18.3976 33.2606C19.2826 34.1456 19.2826 35.5854 18.3976 36.4702C17.5128 37.3551 16.073 37.3551 15.1881 36.4702ZM19.3922 40.6744C18.5074 39.7895 18.5074 38.3497 19.3922 37.4648C19.8346 37.0223 20.4158 36.8011 20.9969 36.8011C21.5781 36.8011 22.1593 37.0223 22.6018 37.4648C23.0304 37.8934 23.2665 38.4633 23.2665 39.0696C23.2665 39.6757 23.0304 40.2457 22.6018 40.6744C21.717 41.5593 20.2772 41.5594 19.3922 40.6744Z" fill="white"/>
</svg>
