<svg width="28" height="28" viewBox="0 0 28 28" fill="none" xmlns="http://www.w3.org/2000/svg">
<path fill-rule="evenodd" clip-rule="evenodd" d="M27.8097 13.4746C27.7082 13.3529 25.9807 11.3127 23.4049 10.1044C24.3719 7.42871 24.1507 4.76444 24.1365 4.60667C24.1007 4.21199 23.788 3.89928 23.3934 3.86357C23.2356 3.8493 20.5714 3.62814 17.8956 4.59513C16.6874 2.01935 14.6471 0.291825 14.5255 0.190379C14.2212 -0.0634801 13.7789 -0.0634801 13.4746 0.190379C13.3529 0.291825 11.3127 2.01935 10.1044 4.59513C7.42872 3.62814 4.76446 3.8493 4.60668 3.86357C4.212 3.89928 3.8993 4.21199 3.86359 4.60667C3.84932 4.76444 3.62816 7.42865 4.59514 10.1044C2.01936 11.3127 0.29184 13.3529 0.190394 13.4746C-0.0634648 13.7789 -0.0634648 14.2211 0.190394 14.5254C0.291894 14.6471 2.01936 16.6874 4.59514 17.8956C3.62816 20.5713 3.84932 23.2356 3.86359 23.3933C3.8993 23.788 4.212 24.1007 4.60668 24.1364C4.76446 24.1507 7.42867 24.3719 10.1044 23.4049C11.3127 25.9807 13.353 27.7082 13.4746 27.8096C13.7789 28.0635 14.2211 28.0635 14.5255 27.8096C14.6471 27.7082 16.6874 25.9807 17.8956 23.4049C20.5713 24.3719 23.2356 24.1507 23.3934 24.1364C23.788 24.1007 24.1007 23.788 24.1365 23.3933C24.1507 23.2356 24.3719 20.5714 23.4049 17.8956C25.9807 16.6874 27.7082 14.6471 27.8097 14.5254C28.0635 14.2211 28.0635 13.7789 27.8097 13.4746ZM22.524 5.47603C22.5215 6.36985 22.4236 7.96535 21.8645 9.52903C20.8682 9.25707 19.6988 9.10613 18.6566 9.34342C18.8939 8.30108 18.743 7.13197 18.471 6.13551C20.0347 5.57639 21.6302 5.47855 22.524 5.47603ZM19.7112 10.8664C20.2028 10.8664 20.6831 10.9295 21.1466 11.039C20.1796 12.6713 18.6322 13.5742 16.8012 12.8397C17.2634 11.6848 18.3932 10.8664 19.7112 10.8664ZM17.1336 8.28883C17.1336 9.60685 16.3153 10.7366 15.1603 11.1988C14.4257 9.3659 15.3295 7.82043 16.961 6.85339C17.0706 7.31698 17.1336 7.7973 17.1336 8.28883ZM14.937 14C14.937 14.5166 14.5167 14.937 14 14.937C12.757 14.8855 12.7574 13.1143 14 13.063C14.5167 13.063 14.937 13.4834 14.937 14ZM14 1.9453C14.6303 2.57913 15.6894 3.7764 16.3997 5.27741C15.5024 5.78994 14.5678 6.51034 14 7.41684C13.4321 6.51023 12.4978 5.79005 11.6003 5.27741C12.3106 3.77635 13.3697 2.57907 14 1.9453ZM11.039 6.85339C12.6714 7.82043 13.5742 9.36781 12.8397 11.1988C11.0244 10.4225 10.5713 8.69073 11.039 6.85339ZM11.1988 12.8397C9.36597 13.5743 7.82045 12.6706 6.85341 11.039C8.69129 10.5707 10.4237 11.0258 11.1988 12.8397ZM9.52905 6.13551C9.25709 7.13181 9.10615 8.30124 9.34344 9.34342C8.3011 9.10613 7.13199 9.25707 6.13553 9.52903C5.5764 7.96535 5.47856 6.3699 5.47605 5.47603C6.36986 5.47855 7.96537 5.57639 9.52905 6.13551ZM1.94532 14C2.57914 13.3697 3.77642 12.3106 5.27742 11.6003C5.78996 12.4976 6.51035 13.4322 7.41685 14C6.51024 14.5679 5.79006 15.5023 5.27742 16.3997C3.77636 15.6894 2.57909 14.6303 1.94532 14ZM5.47605 22.524C5.47856 21.6302 5.5764 20.0347 6.13553 18.471C7.13182 18.7429 8.30126 18.8939 9.34344 18.6566C9.10615 19.6989 9.25709 20.868 9.52905 21.8645C7.96537 22.4236 6.36986 22.5215 5.47605 22.524ZM8.28885 17.1336C7.79726 17.1336 7.31694 17.0705 6.85341 16.961C7.82045 15.3287 9.36783 14.4259 11.1988 15.1603C10.7366 16.3153 9.60687 17.1336 8.28885 17.1336ZM10.8664 19.7112C10.8664 18.3932 11.6848 17.2634 12.8397 16.8012C13.5743 18.6341 12.6706 20.1796 11.039 21.1466C10.9295 20.683 10.8664 20.2027 10.8664 19.7112ZM14 26.0547C13.3697 25.4209 12.3106 24.2236 11.6003 22.7226C12.4976 22.2101 13.4323 21.4897 14 20.5832C14.5679 21.4898 15.5023 22.21 16.3997 22.7226C15.6894 24.2237 14.6303 25.4209 14 26.0547ZM16.961 21.1466C15.3287 20.1796 14.4259 18.6322 15.1603 16.8012C16.9757 17.5776 17.4288 19.3093 16.961 21.1466ZM16.8012 15.1603C18.6341 14.4257 20.1796 15.3295 21.1466 16.961C19.3088 17.4293 17.5764 16.9742 16.8012 15.1603ZM18.471 21.8645C18.743 20.8682 18.8939 19.6987 18.6566 18.6566C19.6989 18.8939 20.8681 18.7429 21.8645 18.471C22.4236 20.0347 22.5215 21.6301 22.524 22.524C21.6302 22.5215 20.0347 22.4236 18.471 21.8645ZM22.7226 16.3997C22.2101 15.5024 21.4897 14.5678 20.5832 14C21.4898 13.4321 22.21 12.4977 22.7226 11.6003C24.2237 12.3106 25.421 13.3697 26.0547 14C25.421 14.6303 24.2237 15.6894 22.7226 16.3997Z" fill="white"/>
<path fill-rule="evenodd" clip-rule="evenodd" d="M8.9563 2.64359C9.40906 2.64359 9.77661 2.27609 9.77661 1.82328C9.7322 0.73489 8.18023 0.735218 8.13599 1.82328C8.13599 2.27609 8.5036 2.64359 8.9563 2.64359Z" fill="white"/>
<path fill-rule="evenodd" clip-rule="evenodd" d="M19.0437 25.356C18.5909 25.356 18.2234 25.7235 18.2234 26.1763C18.2678 27.2647 19.8198 27.2644 19.864 26.1763C19.864 25.7235 19.4964 25.356 19.0437 25.356Z" fill="white"/>
<path fill-rule="evenodd" clip-rule="evenodd" d="M19.0437 2.64359C19.4965 2.64359 19.864 2.27609 19.864 1.82328C19.8196 0.73489 18.2676 0.735218 18.2234 1.82328C18.2234 2.27609 18.5909 2.64359 19.0437 2.64359Z" fill="white"/>
<path fill-rule="evenodd" clip-rule="evenodd" d="M8.9563 25.356C8.50354 25.356 8.13599 25.7235 8.13599 26.1763C8.18039 27.2647 9.73237 27.2644 9.77661 26.1763C9.77661 25.7235 9.40906 25.356 8.9563 25.356Z" fill="white"/>
<path fill-rule="evenodd" clip-rule="evenodd" d="M26.1765 9.77643C26.6293 9.77643 26.9968 9.40893 26.9968 8.95612C26.9524 7.86773 25.4004 7.86806 25.3562 8.95612C25.3562 9.40893 25.7238 9.77643 26.1765 9.77643Z" fill="white"/>
<path fill-rule="evenodd" clip-rule="evenodd" d="M1.82349 18.2231C1.37073 18.2231 1.00317 18.5906 1.00317 19.0435C1.04758 20.1319 2.59956 20.1315 2.6438 19.0435C2.6438 18.5906 2.27619 18.2231 1.82349 18.2231Z" fill="white"/>
<path fill-rule="evenodd" clip-rule="evenodd" d="M26.1765 18.2231C25.7238 18.2231 25.3562 18.5906 25.3562 19.0435C25.4006 20.1319 26.9526 20.1315 26.9968 19.0435C26.9968 18.5906 26.6293 18.2231 26.1765 18.2231Z" fill="white"/>
<path fill-rule="evenodd" clip-rule="evenodd" d="M1.82349 9.77643C2.27624 9.77643 2.6438 9.40893 2.6438 8.95612C2.59939 7.86773 1.04742 7.86806 1.00317 8.95612C1.00317 9.40893 1.37073 9.77643 1.82349 9.77643Z" fill="white"/>
</svg>
