<svg width="50" height="50" viewBox="0 0 50 50" fill="none" xmlns="http://www.w3.org/2000/svg">
<g filter="url(#filter0_b_414_1322)">
<rect x="0.5" y="0.5" width="49" height="49" rx="16.5" stroke="white" stroke-opacity="0.5"/>
</g>
<path fill-rule="evenodd" clip-rule="evenodd" d="M32.0604 20.0606C32.6462 19.4748 32.6462 18.5251 32.0604 17.9393C31.4746 17.3535 30.5249 17.3535 29.9391 17.9393L24.9998 22.8786L20.0604 17.9393C19.4746 17.3535 18.5249 17.3535 17.9391 17.9393C17.3533 18.5251 17.3533 19.4748 17.9391 20.0606L22.8784 24.9999L17.9391 29.9393C17.3533 30.5251 17.3533 31.4748 17.9391 32.0606C18.5249 32.6464 19.4746 32.6464 20.0604 32.0606L24.9998 27.1213L29.9391 32.0606C30.5249 32.6464 31.4746 32.6464 32.0604 32.0606C32.6462 31.4748 32.6462 30.5251 32.0604 29.9393L27.1211 24.9999L32.0604 20.0606Z" fill="white" fill-opacity="0.5"/>
<defs>
<filter id="filter0_b_414_1322" x="-18" y="-18" width="86" height="86" filterUnits="userSpaceOnUse" color-interpolation-filters="sRGB">
<feFlood flood-opacity="0" result="BackgroundImageFix"/>
<feGaussianBlur in="BackgroundImage" stdDeviation="9"/>
<feComposite in2="SourceAlpha" operator="in" result="effect1_backgroundBlur_414_1322"/>
<feBlend mode="normal" in="SourceGraphic" in2="effect1_backgroundBlur_414_1322" result="shape"/>
</filter>
</defs>
</svg>
