<svg xmlns="http://www.w3.org/2000/svg" xmlns:xlink="http://www.w3.org/1999/xlink" width="1920" zoomAndPan="magnify" viewBox="0 0 1440 809.999993" height="1080" preserveAspectRatio="xMidYMid meet" version="1.0"><defs><g/><clipPath id="d6b6e3958f"><path d="M 667.007812 247.601562 L 1081.007812 247.601562 L 1081.007812 433.601562 L 667.007812 433.601562 Z M 667.007812 247.601562 " clip-rule="nonzero"/></clipPath></defs><path fill="#000000" d="M 982.664062 585.3125 L 904.191406 493.820312 L 904.191406 319.640625 C 904.148438 316.925781 904.050781 314.214844 903.890625 311.507812 C 903.734375 308.800781 903.519531 306.09375 903.242188 303.398438 C 902.96875 300.699219 902.632812 298.003906 902.242188 295.320312 C 901.847656 292.636719 901.398438 289.960938 900.890625 287.296875 C 900.382812 284.632812 899.816406 281.976562 899.191406 279.339844 C 898.566406 276.699219 897.886719 274.070312 897.148438 271.460938 C 896.410156 268.851562 895.617188 266.257812 894.765625 263.679688 C 893.917969 261.101562 893.011719 258.546875 892.050781 256.007812 C 891.089844 253.472656 890.070312 250.957031 889 248.460938 C 887.929688 245.96875 886.804688 243.5 885.628906 241.054688 C 884.449219 238.613281 883.21875 236.195312 881.9375 233.804688 C 880.652344 231.410156 879.320312 229.050781 877.933594 226.714844 C 876.550781 224.382812 875.113281 222.082031 873.628906 219.808594 C 872.140625 217.539062 870.609375 215.300781 869.027344 213.097656 C 867.441406 210.894531 865.8125 208.722656 864.136719 206.589844 C 862.460938 204.457031 860.738281 202.359375 858.96875 200.300781 C 857.203125 198.242188 855.390625 196.222656 853.535156 194.242188 C 851.679688 192.261719 849.78125 190.320312 847.839844 188.425781 C 845.902344 186.527344 843.921875 184.671875 841.902344 182.859375 C 839.878906 181.046875 837.820312 179.277344 835.722656 177.554688 C 833.625 175.832031 831.492188 174.15625 829.324219 172.527344 C 827.152344 170.894531 824.949219 169.3125 822.710938 167.777344 C 820.472656 166.242188 818.199219 164.757812 815.898438 163.320312 C 813.59375 161.882812 811.261719 160.5 808.898438 159.164062 C 806.535156 157.828125 804.140625 156.546875 801.722656 155.3125 C 799.304688 154.082031 796.859375 152.90625 794.386719 151.777344 C 791.917969 150.652344 789.425781 149.582031 786.90625 148.566406 C 784.390625 147.546875 781.851562 146.585938 779.292969 145.679688 C 776.734375 144.773438 774.160156 143.921875 771.5625 143.125 C 768.96875 142.328125 766.355469 141.589844 763.726562 140.910156 C 761.101562 140.226562 758.457031 139.601562 755.804688 139.035156 C 753.148438 138.46875 750.484375 137.957031 747.804688 137.503906 L 747.804688 106.535156 C 747.804688 105.601562 747.761719 104.675781 747.667969 103.75 C 747.578125 102.824219 747.441406 101.902344 747.257812 100.992188 C 747.078125 100.078125 746.851562 99.175781 746.582031 98.285156 C 746.3125 97.394531 745.996094 96.519531 745.640625 95.660156 C 745.285156 94.800781 744.886719 93.960938 744.449219 93.140625 C 744.007812 92.320312 743.53125 91.523438 743.015625 90.746094 C 742.496094 89.972656 741.941406 89.226562 741.351562 88.507812 C 740.761719 87.789062 740.136719 87.101562 739.476562 86.441406 C 738.820312 85.785156 738.128906 85.160156 737.410156 84.570312 C 736.691406 83.980469 735.945312 83.425781 735.167969 82.910156 C 734.394531 82.390625 733.597656 81.914062 732.777344 81.476562 C 731.953125 81.035156 731.113281 80.640625 730.253906 80.28125 C 729.394531 79.925781 728.515625 79.613281 727.625 79.34375 C 726.734375 79.074219 725.832031 78.847656 724.917969 78.664062 C 724.007812 78.484375 723.085938 78.347656 722.160156 78.257812 C 721.234375 78.164062 720.304688 78.121094 719.371094 78.121094 C 718.441406 78.121094 717.511719 78.164062 716.585938 78.257812 C 715.660156 78.347656 714.738281 78.484375 713.824219 78.664062 C 712.910156 78.847656 712.007812 79.074219 711.117188 79.34375 C 710.226562 79.613281 709.351562 79.925781 708.492188 80.28125 C 707.632812 80.640625 706.789062 81.035156 705.96875 81.476562 C 705.148438 81.914062 704.351562 82.390625 703.574219 82.910156 C 702.800781 83.425781 702.054688 83.980469 701.335938 84.570312 C 700.613281 85.160156 699.925781 85.785156 699.265625 86.441406 C 698.609375 87.101562 697.984375 87.789062 697.394531 88.507812 C 696.800781 89.226562 696.25 89.972656 695.730469 90.746094 C 695.214844 91.523438 694.734375 92.320312 694.296875 93.140625 C 693.855469 93.960938 693.460938 94.800781 693.101562 95.660156 C 692.746094 96.519531 692.433594 97.394531 692.164062 98.285156 C 691.894531 99.175781 691.667969 100.078125 691.484375 100.992188 C 691.304688 101.902344 691.167969 102.824219 691.074219 103.75 C 690.984375 104.675781 690.9375 105.601562 690.9375 106.535156 L 690.9375 137.503906 C 688.261719 137.957031 685.597656 138.46875 682.941406 139.035156 C 680.285156 139.601562 677.644531 140.226562 675.015625 140.910156 C 672.390625 141.589844 669.777344 142.328125 667.183594 143.125 C 664.585938 143.921875 662.007812 144.773438 659.449219 145.679688 C 656.890625 146.585938 654.355469 147.546875 651.835938 148.566406 C 649.320312 149.582031 646.828125 150.652344 644.355469 151.777344 C 641.886719 152.90625 639.441406 154.082031 637.023438 155.3125 C 634.601562 156.546875 632.210938 157.828125 629.847656 159.164062 C 627.484375 160.5 625.152344 161.882812 622.847656 163.320312 C 620.542969 164.757812 618.273438 166.242188 616.035156 167.777344 C 613.796875 169.3125 611.589844 170.894531 609.421875 172.527344 C 607.25 174.15625 605.117188 175.832031 603.019531 177.554688 C 600.921875 179.277344 598.863281 181.046875 596.84375 182.859375 C 594.824219 184.671875 592.84375 186.527344 590.902344 188.425781 C 588.964844 190.320312 587.066406 192.261719 585.210938 194.242188 C 583.355469 196.222656 581.542969 198.242188 579.773438 200.300781 C 578.007812 202.359375 576.285156 204.457031 574.609375 206.589844 C 572.929688 208.722656 571.300781 210.894531 569.71875 213.097656 C 568.136719 215.300781 566.601562 217.539062 565.117188 219.808594 C 563.632812 222.082031 562.195312 224.382812 560.808594 226.714844 C 559.425781 229.050781 558.089844 231.410156 556.808594 233.804688 C 555.523438 236.195312 554.292969 238.613281 553.117188 241.054688 C 551.9375 243.5 550.8125 245.96875 549.742188 248.460938 C 548.671875 250.957031 547.65625 253.472656 546.695312 256.007812 C 545.734375 258.546875 544.828125 261.101562 543.976562 263.679688 C 543.128906 266.257812 542.332031 268.851562 541.59375 271.460938 C 540.859375 274.070312 540.175781 276.699219 539.554688 279.339844 C 538.929688 281.980469 538.363281 284.632812 537.855469 287.296875 C 537.347656 289.960938 536.894531 292.636719 536.503906 295.320312 C 536.113281 298.003906 535.777344 300.699219 535.503906 303.398438 C 535.226562 306.09375 535.011719 308.800781 534.851562 311.507812 C 534.695312 314.214844 534.59375 316.925781 534.554688 319.640625 L 534.554688 493.820312 L 456.078125 585.3125 C 455.199219 586.339844 454.398438 587.421875 453.675781 588.5625 C 452.949219 589.703125 452.3125 590.890625 451.757812 592.121094 C 451.203125 593.355469 450.738281 594.621094 450.363281 595.917969 C 449.988281 597.214844 449.710938 598.535156 449.523438 599.875 C 449.335938 601.210938 449.246094 602.554688 449.253906 603.90625 C 449.257812 605.257812 449.359375 606.601562 449.558594 607.9375 C 449.757812 609.273438 450.046875 610.589844 450.433594 611.886719 C 450.820312 613.179688 451.296875 614.441406 451.859375 615.667969 C 452.425781 616.894531 453.074219 618.074219 453.808594 619.210938 C 454.542969 620.34375 455.355469 621.421875 456.242188 622.441406 C 457.128906 623.460938 458.085938 624.410156 459.109375 625.292969 C 460.132812 626.175781 461.214844 626.980469 462.351562 627.710938 C 463.492188 628.4375 464.675781 629.082031 465.90625 629.640625 C 467.136719 630.203125 468.402344 630.671875 469.699219 631.050781 C 470.996094 631.429688 472.3125 631.714844 473.652344 631.90625 C 474.992188 632.097656 476.335938 632.195312 477.6875 632.195312 L 594.835938 632.195312 C 595.671875 635.671875 596.652344 639.105469 597.773438 642.5 C 598.894531 645.894531 600.152344 649.238281 601.550781 652.53125 C 602.945312 655.820312 604.476562 659.046875 606.140625 662.214844 C 607.808594 665.378906 609.597656 668.46875 611.519531 671.484375 C 613.4375 674.503906 615.480469 677.433594 617.640625 680.28125 C 619.804688 683.132812 622.078125 685.886719 624.46875 688.546875 C 626.859375 691.207031 629.355469 693.761719 631.957031 696.21875 C 634.554688 698.671875 637.253906 701.015625 640.050781 703.246094 C 642.84375 705.480469 645.726562 707.59375 648.695312 709.585938 C 651.664062 711.578125 654.710938 713.449219 657.835938 715.191406 C 660.957031 716.933594 664.148438 718.542969 667.40625 720.023438 C 670.664062 721.5 673.976562 722.84375 677.34375 724.050781 C 680.710938 725.253906 684.125 726.320312 687.578125 727.246094 C 691.035156 728.167969 694.523438 728.949219 698.042969 729.585938 C 701.5625 730.21875 705.105469 730.710938 708.664062 731.054688 C 712.226562 731.398438 715.796875 731.59375 719.371094 731.644531 C 722.949219 731.59375 726.519531 731.398438 730.078125 731.054688 C 733.640625 730.710938 737.179688 730.21875 740.703125 729.585938 C 744.222656 728.949219 747.710938 728.167969 751.164062 727.246094 C 754.621094 726.320312 758.035156 725.253906 761.402344 724.050781 C 764.769531 722.84375 768.082031 721.5 771.339844 720.023438 C 774.59375 718.542969 777.785156 716.933594 780.910156 715.191406 C 784.035156 713.449219 787.078125 711.578125 790.050781 709.585938 C 793.019531 707.59375 795.902344 705.480469 798.695312 703.246094 C 801.492188 701.015625 804.1875 698.671875 806.789062 696.21875 C 809.390625 693.761719 811.886719 691.207031 814.277344 688.546875 C 816.664062 685.886719 818.941406 683.132812 821.105469 680.28125 C 823.265625 677.433594 825.304688 674.503906 827.226562 671.484375 C 829.144531 668.46875 830.9375 665.378906 832.601562 662.214844 C 834.265625 659.046875 835.796875 655.820312 837.195312 652.53125 C 838.59375 649.238281 839.851562 645.894531 840.972656 642.5 C 842.09375 639.105469 843.074219 635.671875 843.910156 632.195312 L 961.054688 632.195312 C 962.410156 632.195312 963.753906 632.097656 965.089844 631.90625 C 966.429688 631.714844 967.746094 631.429688 969.046875 631.050781 C 970.34375 630.671875 971.605469 630.203125 972.835938 629.640625 C 974.066406 629.082031 975.253906 628.4375 976.390625 627.710938 C 977.53125 626.980469 978.609375 626.175781 979.632812 625.292969 C 980.65625 624.410156 981.613281 623.460938 982.5 622.441406 C 983.390625 621.421875 984.199219 620.34375 984.933594 619.210938 C 985.667969 618.078125 986.316406 616.894531 986.882812 615.667969 C 987.449219 614.441406 987.925781 613.179688 988.3125 611.886719 C 988.695312 610.589844 988.988281 609.273438 989.1875 607.9375 C 989.382812 606.601562 989.484375 605.257812 989.492188 603.90625 C 989.496094 602.554688 989.40625 601.210938 989.222656 599.875 C 989.035156 598.535156 988.753906 597.214844 988.382812 595.917969 C 988.007812 594.621094 987.542969 593.355469 986.988281 592.121094 C 986.433594 590.890625 985.792969 589.703125 985.070312 588.5625 C 984.347656 587.421875 983.542969 586.339844 982.664062 585.3125 Z M 719.371094 674.816406 C 717.675781 674.773438 715.980469 674.667969 714.289062 674.507812 C 712.597656 674.34375 710.914062 674.121094 709.238281 673.84375 C 707.5625 673.5625 705.898438 673.226562 704.246094 672.828125 C 702.59375 672.433594 700.957031 671.980469 699.335938 671.46875 C 697.714844 670.960938 696.113281 670.394531 694.53125 669.773438 C 692.949219 669.152344 691.394531 668.476562 689.859375 667.746094 C 688.324219 667.015625 686.816406 666.234375 685.339844 665.398438 C 683.859375 664.5625 682.410156 663.675781 680.992188 662.742188 C 679.574219 661.804688 678.191406 660.820312 676.84375 659.789062 C 675.496094 658.757812 674.183594 657.679688 672.910156 656.554688 C 671.636719 655.429688 670.402344 654.261719 669.210938 653.054688 C 668.019531 651.84375 666.871094 650.59375 665.765625 649.304688 C 664.660156 648.011719 663.601562 646.6875 662.589844 645.324219 C 661.578125 643.960938 660.613281 642.5625 659.699219 641.132812 C 658.785156 639.699219 657.921875 638.238281 657.109375 636.746094 C 656.296875 635.257812 655.535156 633.738281 654.828125 632.195312 L 783.917969 632.195312 C 783.210938 633.738281 782.449219 635.257812 781.636719 636.746094 C 780.824219 638.238281 779.960938 639.699219 779.046875 641.132812 C 778.128906 642.5625 777.167969 643.960938 776.15625 645.324219 C 775.144531 646.6875 774.085938 648.011719 772.980469 649.304688 C 771.875 650.59375 770.726562 651.84375 769.535156 653.054688 C 768.339844 654.261719 767.109375 655.429688 765.835938 656.554688 C 764.5625 657.679688 763.25 658.757812 761.902344 659.789062 C 760.550781 660.820312 759.167969 661.804688 757.75 662.742188 C 756.332031 663.675781 754.886719 664.5625 753.40625 665.398438 C 751.925781 666.234375 750.417969 667.015625 748.886719 667.746094 C 747.351562 668.476562 745.792969 669.152344 744.210938 669.773438 C 742.632812 670.394531 741.03125 670.960938 739.410156 671.46875 C 737.789062 671.980469 736.152344 672.433594 734.5 672.828125 C 732.847656 673.226562 731.183594 673.5625 729.507812 673.84375 C 727.832031 674.121094 726.148438 674.34375 724.457031 674.507812 C 722.765625 674.667969 721.070312 674.773438 719.371094 674.816406 Z M 539.53125 575.367188 L 584.597656 522.800781 C 586.800781 520.226562 588.488281 517.351562 589.660156 514.175781 C 590.835938 511 591.421875 507.71875 591.421875 504.332031 L 591.421875 319.640625 C 591.421875 317.546875 591.472656 315.457031 591.574219 313.367188 C 591.679688 311.277344 591.832031 309.191406 592.039062 307.105469 C 592.242188 305.023438 592.5 302.949219 592.808594 300.878906 C 593.113281 298.808594 593.472656 296.746094 593.878906 294.695312 C 594.289062 292.640625 594.746094 290.601562 595.257812 288.570312 C 595.765625 286.542969 596.324219 284.527344 596.929688 282.523438 C 597.539062 280.519531 598.195312 278.535156 598.902344 276.5625 C 599.605469 274.59375 600.359375 272.640625 601.160156 270.707031 C 601.964844 268.773438 602.8125 266.863281 603.707031 264.972656 C 604.601562 263.078125 605.542969 261.210938 606.53125 259.367188 C 607.515625 257.519531 608.550781 255.699219 609.625 253.90625 C 610.703125 252.109375 611.820312 250.34375 612.984375 248.601562 C 614.148438 246.863281 615.355469 245.152344 616.601562 243.472656 C 617.847656 241.789062 619.136719 240.140625 620.464844 238.523438 C 621.792969 236.90625 623.160156 235.324219 624.566406 233.773438 C 625.972656 232.222656 627.417969 230.707031 628.898438 229.226562 C 630.378906 227.746094 631.894531 226.304688 633.445312 224.898438 C 634.996094 223.492188 636.582031 222.128906 638.203125 220.800781 C 639.820312 219.472656 641.46875 218.183594 643.152344 216.9375 C 644.835938 215.691406 646.546875 214.488281 648.285156 213.324219 C 650.027344 212.164062 651.796875 211.042969 653.59375 209.96875 C 655.390625 208.890625 657.210938 207.859375 659.058594 206.875 C 660.902344 205.886719 662.773438 204.949219 664.667969 204.050781 C 666.558594 203.15625 668.472656 202.308594 670.40625 201.507812 C 672.34375 200.707031 674.296875 199.957031 676.265625 199.25 C 678.238281 198.546875 680.226562 197.890625 682.230469 197.28125 C 684.234375 196.675781 686.25 196.117188 688.28125 195.609375 C 690.3125 195.101562 692.355469 194.640625 694.410156 194.234375 C 696.464844 193.824219 698.527344 193.46875 700.597656 193.160156 C 702.667969 192.851562 704.746094 192.597656 706.832031 192.390625 C 708.914062 192.1875 711.003906 192.03125 713.09375 191.929688 C 715.1875 191.828125 717.277344 191.777344 719.371094 191.777344 C 721.464844 191.777344 723.558594 191.828125 725.652344 191.929688 C 727.742188 192.03125 729.828125 192.1875 731.914062 192.390625 C 733.996094 192.597656 736.074219 192.851562 738.148438 193.160156 C 740.21875 193.46875 742.28125 193.824219 744.335938 194.234375 C 746.386719 194.640625 748.429688 195.101562 750.460938 195.609375 C 752.492188 196.117188 754.511719 196.675781 756.515625 197.28125 C 758.519531 197.890625 760.507812 198.546875 762.476562 199.25 C 764.449219 199.957031 766.402344 200.707031 768.335938 201.507812 C 770.269531 202.308594 772.183594 203.15625 774.078125 204.050781 C 775.972656 204.949219 777.839844 205.886719 779.6875 206.875 C 781.535156 207.859375 783.355469 208.890625 785.152344 209.96875 C 786.949219 211.042969 788.714844 212.164062 790.457031 213.324219 C 792.199219 214.488281 793.910156 215.691406 795.59375 216.9375 C 797.273438 218.183594 798.925781 219.472656 800.542969 220.800781 C 802.160156 222.128906 803.746094 223.492188 805.296875 224.898438 C 806.851562 226.304688 808.367188 227.746094 809.847656 229.226562 C 811.328125 230.707031 812.769531 232.222656 814.175781 233.773438 C 815.582031 235.324219 816.949219 236.90625 818.28125 238.523438 C 819.609375 240.140625 820.894531 241.789062 822.144531 243.472656 C 823.390625 245.152344 824.597656 246.863281 825.757812 248.601562 C 826.921875 250.34375 828.042969 252.109375 829.117188 253.90625 C 830.195312 255.699219 831.226562 257.519531 832.214844 259.367188 C 833.203125 261.210938 834.144531 263.078125 835.039062 264.972656 C 835.933594 266.863281 836.78125 268.773438 837.582031 270.707031 C 838.382812 272.640625 839.136719 274.59375 839.84375 276.5625 C 840.546875 278.535156 841.207031 280.519531 841.8125 282.523438 C 842.421875 284.527344 842.980469 286.542969 843.488281 288.570312 C 843.996094 290.601562 844.457031 292.640625 844.863281 294.695312 C 845.273438 296.746094 845.628906 298.808594 845.9375 300.878906 C 846.246094 302.949219 846.5 305.023438 846.707031 307.105469 C 846.910156 309.191406 847.066406 311.277344 847.167969 313.367188 C 847.269531 315.457031 847.324219 317.546875 847.324219 319.640625 L 847.324219 504.332031 C 847.324219 507.71875 847.910156 511 849.082031 514.175781 C 850.257812 517.351562 851.945312 520.226562 854.148438 522.800781 L 899.214844 575.367188 Z M 539.53125 575.367188 " fill-opacity="1" fill-rule="nonzero"/><g clip-path="url(#d6b6e3958f)"><path fill="#ff66c4" d="M 705.242188 247.601562 L 1042.777344 247.601562 C 1052.914062 247.601562 1062.640625 251.632812 1069.808594 258.808594 C 1076.980469 265.984375 1081.007812 275.71875 1081.007812 285.863281 L 1081.007812 395.335938 C 1081.007812 405.484375 1076.980469 415.21875 1069.808594 422.394531 C 1062.640625 429.570312 1052.914062 433.601562 1042.777344 433.601562 L 705.242188 433.601562 C 695.101562 433.601562 685.378906 429.570312 678.207031 422.394531 C 671.039062 415.21875 667.011719 405.484375 667.011719 395.335938 L 667.011719 285.863281 C 667.011719 275.71875 671.039062 265.984375 678.207031 258.808594 C 685.378906 251.632812 695.101562 247.601562 705.242188 247.601562 " fill-opacity="1" fill-rule="nonzero"/></g><g fill="#ffffff" fill-opacity="1"><g transform="translate(734.227463, 386.692529)"><g><path d="M 27.546875 0 L 11.140625 0 L 11.140625 -85.671875 L 30.53125 -85.671875 L 64.921875 -30.46875 L 66.453125 -30.703125 L 66.453125 -85.671875 L 82.734375 -85.671875 L 82.734375 0 L 65.390625 0 L 29 -58.953125 L 27.546875 -58.71875 Z M 27.546875 0 "/></g></g></g><g fill="#ffffff" fill-opacity="1"><g transform="translate(828.202655, 386.692529)"><g><path d="M 28.0625 -37.625 L 28.0625 -14.1875 L 68.96875 -14.1875 L 68.96875 0 L 11.140625 0 L 11.140625 -85.671875 L 68.03125 -85.671875 L 68.03125 -71.484375 L 28.0625 -71.484375 L 28.0625 -51.453125 L 62.984375 -51.453125 L 62.984375 -37.625 Z M 28.0625 -37.625 "/></g></g></g><g fill="#ffffff" fill-opacity="1"><g transform="translate(901.847808, 386.692529)"><g><path d="M 40.90625 0 L 21.96875 0 L 2.34375 -85.671875 L 19.21875 -85.671875 L 32.171875 -25.4375 L 33.640625 -25.4375 L 48.984375 -85.671875 L 63.453125 -85.671875 L 79.109375 -25.4375 L 80.5625 -25.4375 L 93.578125 -85.671875 L 109.859375 -85.671875 L 90.296875 0 L 71.3125 0 L 56.3125 -55.25 L 55.078125 -55.25 Z M 40.90625 0 "/></g></g></g></svg>